<?xml version="1.0" encoding="UTF-8"?>
<svg xmlns="http://www.w3.org/2000/svg" xmlns:xlink="http://www.w3.org/1999/xlink" version="1.1" id="Capa_1" x="0px" y="0px" viewBox="0 0 511 511" style="enable-background:new 0 0 511 511;" xml:space="preserve" width="512" height="512">
<g>
	<path style="fill:none;stroke:#000000;stroke-width:20;stroke-linecap:round;stroke-linejoin:round;stroke-miterlimit:10;" d="&#10;&#9;&#9;M120.41,358.347c-33.44-42.182-40.622-101.877-13.499-152.287c0.968-1.799,1.97-3.568,3.005-5.307"/>
	
		<polyline style="fill:none;stroke:#000000;stroke-width:20;stroke-linecap:round;stroke-linejoin:round;stroke-miterlimit:10;" points="&#10;&#9;&#9;128.397,225.954 112.074,198.049 79.944,210.481 &#9;"/>
	<path style="fill:none;stroke:#000000;stroke-width:20;stroke-linecap:round;stroke-linejoin:round;stroke-miterlimit:10;" d="&#10;&#9;&#9;M390.59,198.049c33.44,42.182,40.622,101.877,13.499,152.287c-0.968,1.799-1.97,3.568-3.005,5.307"/>
	
		<polyline style="fill:none;stroke:#000000;stroke-width:20;stroke-linecap:round;stroke-linejoin:round;stroke-miterlimit:10;" points="&#10;&#9;&#9;382.603,330.442 398.926,358.347 431.056,345.915 &#9;"/>
	
		<line style="fill:none;stroke:#000000;stroke-width:20;stroke-linecap:round;stroke-linejoin:round;stroke-miterlimit:10;" x1="255.5" y1="305.936" x2="255.5" y2="501"/>
	<path style="fill:none;stroke:#000000;stroke-width:20;stroke-linecap:round;stroke-linejoin:round;stroke-miterlimit:10;" d="&#10;&#9;&#9;M231.714,389.935c16.305,16.305,24.111,38.259,23.776,61.236c-22.977,0.335-44.931-7.471-61.236-23.776&#10;&#9;&#9;c-16.301-16.301-24.111-38.259-23.776-61.236C193.454,365.824,215.412,373.634,231.714,389.935z"/>
	<path style="fill:none;stroke:#000000;stroke-width:20;stroke-linecap:round;stroke-linejoin:round;stroke-miterlimit:10;" d="&#10;&#9;&#9;M279.286,340.762c-16.305,16.305-24.111,38.259-23.776,61.236c22.977,0.335,44.931-7.471,61.236-23.776&#10;&#9;&#9;c16.301-16.301,24.111-38.259,23.776-61.236C317.546,316.651,295.588,324.461,279.286,340.762z"/>
	<path style="fill:none;stroke:#000000;stroke-width:20;stroke-linecap:round;stroke-linejoin:round;stroke-miterlimit:10;" d="&#10;&#9;&#9;M321.451,32.733C303.277,18.491,280.38,10,255.5,10c-59.101,0-107.012,47.911-107.012,107.012S196.399,224.023,255.5,224.023&#10;&#9;&#9;s107.012-47.911,107.012-107.012c0-2.228-0.068-4.44-0.202-6.633"/>
	<g>
		<path style="fill:none;stroke:#000000;stroke-width:20;stroke-linecap:round;stroke-linejoin:round;stroke-miterlimit:10;" d="&#10;&#9;&#9;&#9;M283.282,74.202c0,0-18.982-13.186-36.898-7.789c-16.451,4.955-20.536,27.464-9.357,36.232&#10;&#9;&#9;&#9;c6.419,5.035,16.077,9.174,29.094,13.775c29.134,10.298,18.364,51.384-11.271,51.581c-11.565,0.077-16.972-0.657-27.131-7.303"/>
		
			<line style="fill:none;stroke:#000000;stroke-width:20;stroke-linecap:round;stroke-linejoin:round;stroke-miterlimit:10;" x1="254.854" y1="182.995" x2="254.854" y2="167.999"/>
		
			<line style="fill:none;stroke:#000000;stroke-width:20;stroke-linecap:round;stroke-linejoin:round;stroke-miterlimit:10;" x1="254.854" y1="64.929" x2="254.854" y2="51.028"/>
	</g>
	
		<line style="fill:none;stroke:#000000;stroke-width:20;stroke-linecap:round;stroke-linejoin:round;stroke-miterlimit:10;" x1="350.355" y1="67.073" x2="350.355" y2="67.073"/>
</g>















</svg>
