<svg clip-rule="evenodd" fill-rule="evenodd" height="512" image-rendering="optimizeQuality" shape-rendering="geometricPrecision" text-rendering="geometricPrecision" viewBox="0 0 6.82666 6.82666" width="512" xmlns="http://www.w3.org/2000/svg"><g id="Layer_x0020_1"><g id="_341603200"><path id="_341186480" d="m1.88414 5.5304c-.0037874.00592126-.0084685.0113031-.0139528.0159134-.0901299.104803-.17952.248925-.248469.446429h.311476c.0337559 0 .0617559-.0263071.0638228-.0598031.0141378-.225823.081-.454685.131425-.599992-.0690709.0378425-.156559.0993661-.244303.197453z"/><path id="_341186288" d="m1.18106 5.54646c-.00562205-.00468898-.0104094-.0101969-.0142559-.0162598-.0876732-.0979724-.175098-.159445-.244189-.19726.0504331.145307.117291.374295.131421.599992.0020748.0334961.0300827.0598031.0638228.0598031h.31148c-.0689016-.197409-.158205-.341484-.24828-.446276z"/><path id="_341185808" d="m1.74446 5.47818c-.0637677-.161173-.158374-.32663-.218933-.425988-.0605433.0993307-.155213.264929-.218902.425898.0785472.0957638.15489.217685.218902.372752.0640394-.155016.140394-.276913.218933-.372661z"/><path id="_341185904" d="m3.77193 5.5304c-.0037874.00592913-.00847244.011315-.0139606.0159252-.0901299.104803-.179508.248921-.248453.446417h.311476c.0337441 0 .0617559-.0263071.0638268-.0598031.0141496-.225823.0809961-.454685.131421-.599992-.0690787.0378425-.156567.0993661-.244311.197453z"/><path id="_341185736" d="m3.06902 5.54661c-.00574803-.00476772-.0106339-.0103819-.0145394-.0165787-.0876417-.097874-.175031-.159287-.244079-.197083.0504528.145307.117299.374295.131425.599992.00209449.0334961.0300866.0598031.0638268.0598031h.311504c-.0688268-.197323-.158087-.341358-.248138-.446134z"/><path id="_341185712" d="m3.63225 5.47818c-.0637559-.161169-.158366-.326626-.218929-.425984-.0605354.0993307-.155114.264933-.218878.425906.0785315.0957598.15487.217681.218878.372744.0640354-.155016.140386-.276917.218929-.372665z"/><path id="_341185472" d="m5.20501 5.99274c-.138858-.396846-.362449-.578866-.506319-.658579.0504409.145433.116925.373685.130933.598776.00207874.0334961.0302087.0598031.0638268.0598031h.311559z"/><path id="_341185664" d="m5.65972 5.53046c-.00378346.00592126-.0084685.0112992-.0139449.0159055-.0901024.104795-.179469.248906-.248445.446378h.311457c.0337598 0 .061752-.0263071.0639449-.0598031.0140197-.225823.080878-.454685.131303-.599992-.0690866.0378504-.156571.0993937-.244315.197512z"/><path id="_341184848" d="m5.52005 5.47819c-.0637638-.161173-.158366-.326634-.218929-.425992-.0605591.0993465-.155146.264984-.218815.42598.0785118.095752.154823.217646.218815.372669.0640394-.155012.14039-.276906.218929-.372657z"/><path id="_341184728" d="m.580957 6.43183h5.664743v-.29877h-.53689-.40768-.00001-.40767-1.07245-.40766-.00002-.40767-1.07244-.40768-.00001-.40767-.536893z"/><path id="_341185136" d="m5.44285.63513h-.315669c-.0663228 0-.120161-.0538307-.120157-.120157.00000394-.0663228.0538307-.12015.120154-.12015h.871492c.0663386 0 .120154.0538189.120154.120154 0 .0663307-.0538228.120154-.120154.120154h-.315528l.00001968.413331c.00000394.0663228-.0538386.120161-.120157.120157-.0663307-.00000394-.120177-.053811-.120173-.120154l.00001968-.413335zm-4.29933 0h-.315535c-.0663268 0-.120181-.0538307-.120169-.120165.00001181-.0663189.0538268-.120142.120154-.120142h.871508c.0663189 0 .120118.0538268.120134.120142.00001575.0663228-.053811.120165-.120134.120165h-.315665l.00001968.413331c.00000394.0663228-.0538386.120161-.120157.120157-.0663307-.00000394-.120177-.053811-.120173-.120154l.00001968-.413335zm1.44986 3.40702c-.0663346 0-.120185-.053815-.120177-.120157l.00002362-.260776c.00000787-.0663268.0537992-.12015.12013-.12015.0663346 0 .120146.0538189.120154.12015l.00002362.260776c.00000787.0663189-.0538346.120157-.120154.120157zm.409984 0c-.0663346 0-.120185-.053815-.120177-.120157l.00002362-.260776c.00000787-.0663268.0537953-.12015.12013-.12015.0663346 0 .120146.0538189.120154.12015l.00002362.260776c.00000787.0663189-.0538386.120157-.120154.120157zm.40998 0c-.0663346 0-.120185-.053815-.120177-.120157l.00002362-.260776c.00000787-.0663268.0537992-.12015.12013-.12015.0663346 0 .120146.0538189.120154.12015l.00002362.260776c.00000787.0663189-.0538346.120157-.120154.120157zm.409984 0c-.0663346 0-.120185-.053815-.120177-.120157l.00002362-.260776c.00000787-.0663268.0537992-.12015.12013-.12015.0663346 0 .120146.0538189.120154.12015l.00002362.260776c.00000787.0663189-.0538386.120157-.120154.120157zm.40998 0c-.0663346 0-.120185-.053815-.120177-.120157l.00002362-.260776c.00000787-.0663268.0537953-.12015.12013-.12015.0663346 0 .120154.053815.120157.12015l.00001968.260776c.00000394.0663189-.0538346.120157-.120154.120157zm-1.63993.583307c-.0663346 0-.120185-.053815-.120177-.120157l.00002362-.26078c.00000787-.0663228.0537992-.12015.12013-.12015.0663346 0 .120146.0538189.120154.12015l.00002362.26078c.00000787.0663189-.0538346.120157-.120154.120157zm.409984 0c-.0663346 0-.120185-.053815-.120177-.120157l.00002362-.26078c.00000787-.0663228.0537992-.12015.12013-.12015.0663346 0 .120146.0538189.120154.12015l.00002362.26078c.00000787.0663189-.0538386.120157-.120154.120157zm.40998 0c-.0663346 0-.120185-.053815-.120177-.120157l.00002362-.26078c.00000787-.0663228.0537992-.12015.12013-.12015.0663346 0 .120146.0538189.120154.12015l.00002362.26078c.00000787.0663189-.0538346.120157-.120154.120157zm.409984 0c-.0663346 0-.120185-.053815-.120177-.120157l.00002362-.26078c.00000787-.0663228.0537992-.12015.12013-.12015.0663346 0 .120146.0538189.120154.12015l.00002362.26078c.00000787.0663189-.0538386.120157-.120154.120157zm.40998 0c-.0663346 0-.120185-.053815-.120177-.120157l.00002362-.26078c.00000787-.0663228.0537992-.12015.12013-.12015.0663346 0 .120154.053815.120157.12015l.00001968.26078c.00000394.0663189-.0538346.120157-.120154.120157z"/><path id="_341184752" d="m4.26381 2.47062c.497043.794024.641555 1.49284.681161 1.76441.00707087.0490827.0397087.0861063.0758819.0861063.0421535 0 .0777126-.0489606.0777126-.106815.00001181-.00170472-.00012205-.00329134-.00012205-.00499213l-.00011417-.00365748c-.0474843-.836902-.298421-1.40608-.515504-1.83178-.0431772.0586063-.112654.0967283-.190811.0967283h-.128205z"/><path id="_341185184" d="m3.48348 1.69413.00001575.636169h.649752c.00129528-.00003543.00259449-.00003543.00388583 0h.254878c.0532244 0 .0965709-.0433622.0965709-.0965906v-.0562874c-.00005512-.00159449-.00005118-.00318898 0-.00477559l.00000394-.383071c-.00008268-.0013937-.00012992-.00279921-.00012992-.0042126 0-.0013937.00005118-.00277953.00012992-.00415354v-.0870787h-1.00511z"/><path id="_341184872" d="m3.41334 2.47062h-.405378v.126425l.124634-.00005512c.00216142-.00020472.00434646-.00030709.00654724-.00030709l.54811-.00000394.00283071.00005906.128717-.00005906-.00024409-.126059h-.405217z"/><path id="_340974208" d="m3.18678 2.73699-.18465.46419h.82216l-.18466-.46419z"/><path id="_341602144" d="m2.33807 1.69413.00000394.539579c0 .0532283.0432283.0965906.0965748.0965906h.25487c.00126378-.00003543.00252756-.0000315.00379528 0h.649854l.00001575-.636169h-1.00511z"/><path id="_341611696" d="m2.24376 2.37384c-.217177.426055-.468165.995634-.515441 1.83244-.00193701.035563.0095.0701575.0306929.0925709.00962992.0101063.0254606.0222835.0467717.0222835.0203543 0 .0359331-.0113228.0454331-.0208228.0159724-.0159567.0266772-.0389764.0303307-.0647992.0397441-.272146.184469-.971189.681287-1.7649h-.128193c-.078248 0-.147724-.0381457-.190882-.0967795z"/><path id="_341606656" d="m2.19775 1.53275-1.06113-.00000394c.0305866.105236.127764.182461.242744.182461l.818382-.00000394v-.0907756l-.00000394-.00045276.00000787-.00045276v-.0907717z"/><path id="_341602696" d="m2.33806 1.01424.00000394.539579h1.07526 1.07527v-.090874l-.00000394-.00035433.00000394-.00035433.00000394-.448c0-.0532205-.0433701-.0965827-.0965984-.0965827h-.34748l.00000394.0247244c.0001063.0310551-.0120827.0606575-.034126.0829488-.0222756.0222835-.0518858.0344685-.0833071.0344646h-1.0275c-.064815 0-.117433-.0526142-.117433-.117413v-.0247244h-.3475c-.0533268 0-.0965866.0433622-.0965866.0965866z"/><path id="_341602648" d="m5.37609 1.20554c-.00000787-.103106.0837953-.186906.186898-.186902.103055.00000394.186799.0838583.186799.186898v.186902h-.373685l-.00001181-.186898z"/><path id="_341602744" d="m5.68991 1.53275-1.061-.00000394v.182461l.818268-.00000394c.114969 0 .212287-.0772205.242736-.182453z"/><path id="_341602624" d="m2.92246.77539v.072106.07198h.98174v-.144086z"/><path id="_341603224" d="m1.26365 1.01863c.0498465 0 .0970315.0195906.132232.0548858.0351378.0352323.0545669.082252.0545669.132012v.186902h-.373685l-.00001575-.186898c-.00000787-.10311.0837953-.186906.186902-.186902z"/></g></g></svg>