<svg id="svg8" height="512" viewBox="0 0 16.933333 16.933333" width="512" xmlns="http://www.w3.org/2000/svg" xmlns:svg="http://www.w3.org/2000/svg"><g id="layer2"><path id="path8670" d="m8.4438438 6.808254c-.034869.00314-.068766.013166-.099732.0295l-7.6740799 4.04102c-.17806488.09421-.18973403.344918-.0211904.455263l7.6740813 5.027016c.085679.05599.195965.05755.2831918.004l7.6735654-4.76398c.170221-.106262.164841-.355912-.0098-.454743l-7.6735646-4.3045865c-.038674-.021808-.082214-.033535-.1266206-.034059-.00863-.0002043-.017251-.0000275-.025851.0005695z" fill="#b4d305" font-variant-ligatures="normal" font-variant-position="normal" font-variant-caps="normal" font-variant-numeric="normal" font-variant-alternates="normal" font-feature-settings="normal" text-indent="0" text-align="start" text-decoration-line="none" text-decoration-style="solid" text-decoration-color="#000000" text-transform="none" text-orientation="mixed" white-space="normal" shape-padding="0" isolation="auto" mix-blend-mode="normal" solid-color="#000000" solid-opacity="1" vector-effect="none"/><g fill="#94ac04"><path id="path8929" d="m8.4438447 6.8082608c-.034867.00312-.068767.013123-.099737.029456l-4.5114271 2.3755312.9730826 2.267009c.09173.21359.3945535.21359.4862834 0l1.199429-2.7491467c.9302006-.3451598 1.6978994-1.0316032 2.1911182-1.8406843l-.086301-.048574c-.038673-.021802-.082212-.03354-.1266085-.034114-.00862-.0002553-.01724-.0000833-.02584.0005228z" font-variant-ligatures="normal" font-variant-position="normal" font-variant-caps="normal" font-variant-numeric="normal" font-variant-alternates="normal" font-feature-settings="normal" text-indent="0" text-align="start" text-decoration-line="none" text-decoration-style="solid" text-decoration-color="#000000" text-transform="none" text-orientation="mixed" white-space="normal" shape-padding="0" isolation="auto" mix-blend-mode="normal" solid-color="#000000" solid-opacity="1" vector-effect="none"/><path id="path8774" d="m8.4438438 6.808254c-.034869.00314-.068766.013166-.099732.0295l-.2826745.1488273 7.4151777 4.1598887c.174641.09883.180021.348481.0098.454743l-7.4084594 4.599132.2449502.160718c.085679.05599.195965.05755.2831918.004l7.6735644-4.76398c.170221-.106262.164841-.355912-.0098-.454743l-7.6735636-4.3045965c-.038674-.021808-.082214-.033535-.1266121-.034059-.00862-.0002043-.017242-.0000275-.025842.0005695z" font-variant-ligatures="normal" font-variant-position="normal" font-variant-caps="normal" font-variant-numeric="normal" font-variant-alternates="normal" font-feature-settings="normal" text-indent="0" text-align="start" text-decoration-line="none" text-decoration-style="solid" text-decoration-color="#000000" text-transform="none" text-orientation="mixed" white-space="normal" shape-padding="0" isolation="auto" mix-blend-mode="normal" solid-color="#000000" solid-opacity="1" vector-effect="none"/><path id="path8758" d="m12.709809 9.1496694-8.1123059 4.7712096.4950694.324015 8.1526125-4.795509z" font-variant-ligatures="normal" font-variant-position="normal" font-variant-caps="normal" font-variant-numeric="normal" font-variant-alternates="normal" font-feature-settings="normal" text-indent="0" text-align="start" text-decoration-line="none" text-decoration-style="solid" text-decoration-color="#000000" text-transform="none" text-orientation="mixed" white-space="normal" shape-padding="0" isolation="auto" mix-blend-mode="normal" solid-color="#000000" solid-opacity="1" vector-effect="none"/></g><path id="path8672" d="m4.6124903 8.8029245-.5508804.2899058 8.3495041 4.9102177.50747-.315226z" fill="#e4eff8" font-variant-ligatures="normal" font-variant-position="normal" font-variant-caps="normal" font-variant-numeric="normal" font-variant-alternates="normal" font-feature-settings="normal" text-indent="0" text-align="start" text-decoration-line="none" text-decoration-style="solid" text-decoration-color="#000000" text-transform="none" text-orientation="mixed" white-space="normal" shape-padding="0" isolation="auto" mix-blend-mode="normal" solid-color="#000000" solid-opacity="1" vector-effect="none"/><path id="path8934" d="m4.6124891 8.8029277-.5508799.2899024 1.8081892 1.0634849.2129104-.4888528z" fill="#c4dcf0" font-variant-ligatures="normal" font-variant-position="normal" font-variant-caps="normal" font-variant-numeric="normal" font-variant-alternates="normal" font-feature-settings="normal" text-indent="0" text-align="start" text-decoration-line="none" text-decoration-style="solid" text-decoration-color="#000000" text-transform="none" text-orientation="mixed" white-space="normal" shape-padding="0" isolation="auto" mix-blend-mode="normal" solid-color="#000000" solid-opacity="1" vector-effect="none"/><path id="path8940" d="m9.9946817 7.6262742c.2901843.7639228.9041353 1.3799378 1.6908813 1.6918611l.79118 1.8654907c.09056.216845.397787.216845.488351 0l.647516-1.5280488z" fill="#94ac04" font-variant-ligatures="normal" font-variant-position="normal" font-variant-caps="normal" font-variant-numeric="normal" font-variant-alternates="normal" font-feature-settings="normal" text-indent="0" text-align="start" text-decoration-line="none" text-decoration-style="solid" text-decoration-color="#000000" text-transform="none" text-orientation="mixed" white-space="normal" shape-padding="0" isolation="auto" mix-blend-mode="normal" solid-color="#000000" solid-opacity="1" vector-effect="none"/><path id="path8674" d="m12.209572 8.8690736-8.0745809 4.7484694.4935185.323496 8.1154054-4.7727699z" fill="#e4eff8" font-variant-ligatures="normal" font-variant-position="normal" font-variant-caps="normal" font-variant-numeric="normal" font-variant-alternates="normal" font-feature-settings="normal" text-indent="0" text-align="start" text-decoration-line="none" text-decoration-style="solid" text-decoration-color="#000000" text-transform="none" text-orientation="mixed" white-space="normal" shape-padding="0" isolation="auto" mix-blend-mode="normal" solid-color="#000000" solid-opacity="1" vector-effect="none"/><path id="path8676" d="m.52946549 4.7613742c.00100002 1.7738438 1.14003451 3.3116611 2.79109171 3.9242421l1.1994305 2.7946287c.091729.21359.3945546.21359.4862833 0l1.1994306-2.7966887c1.6499232-.612221 2.7886956-2.1475983 2.7910917-3.9201221.0000025-.0006667.0000025-.00133 0-.002 0-2.3348456-1.9000445-4.23223755-4.2349564-4.23226755-2.334911-.00003-4.23237141 1.89736195-4.23237141 4.23220755z" fill="#ff5151" font-variant-ligatures="normal" font-variant-position="normal" font-variant-caps="normal" font-variant-numeric="normal" font-variant-alternates="normal" font-feature-settings="normal" text-indent="0" text-align="start" text-decoration-line="none" text-decoration-style="solid" text-decoration-color="#000000" text-transform="none" text-orientation="mixed" white-space="normal" shape-padding="0" isolation="auto" mix-blend-mode="normal" solid-color="#000000" solid-opacity="1" vector-effect="none"/><path id="path8872" d="m6.174695 2.4452884c-.3169604.0849987-.6119554.2518163-.8516415.4919527-.4789732.4798529-.6674254 1.1818726-.4924855 1.8381029.0250431.0908239.0964907.1614824.1875893.1855172.6555642.1767374 1.3546541-.0100998 1.8340273-.4904027.4789582-.4798529.6674234-1.1792826.4924844-1.8355229-.0244068-.0916169-.0959677-.1631737-.1875882-.1875773-.1638908-.0441993-.3305686-.066099-.4955854-.066134-.1650169-.000105-.3283197.0215647-.4868004.0640641z" fill="#ff2929" font-variant-ligatures="normal" font-variant-position="normal" font-variant-caps="normal" font-variant-numeric="normal" font-variant-alternates="normal" font-feature-settings="normal" text-indent="0" text-align="start" text-decoration-line="none" text-decoration-style="solid" text-decoration-color="#000000" text-transform="none" text-orientation="mixed" white-space="normal" shape-padding="0" isolation="auto" mix-blend-mode="normal" solid-color="#000000" solid-opacity="1" vector-effect="none"/><path id="path8697" d="m7.4087499 4.7623976c0 1.4612322-1.1846004 2.6457949-2.6458792 2.6457949-1.4612787-.0000001-2.6458792-1.1845628-2.6458792-2.6457949.0000001-1.4612322 1.1846005-2.6457948 2.6458792-2.6457949 1.4612787 0 2.6458791 1.1845627 2.6458792 2.6457949z" fill="#e4eff8"/><path id="path8861" d="m4.9971199 3.7010898c-.1353673.0155-.2367981.1313481-.234379.2675761v2.3812148c0 .3528548.529306.3528548.529306 0v-2.3812148c.0029001-.1600277-.1359233-.2859358-.294927-.2675761z" fill="#c4dcf0" font-variant-ligatures="normal" font-variant-position="normal" font-variant-caps="normal" font-variant-numeric="normal" font-variant-alternates="normal" font-feature-settings="normal" text-indent="0" text-align="start" text-decoration-line="none" text-decoration-style="solid" text-decoration-color="#000000" text-transform="none" text-orientation="mixed" white-space="normal" shape-padding="0" isolation="auto" mix-blend-mode="normal" solid-color="#000000" solid-opacity="1" vector-effect="none"/><path id="circle8877" d="m4.7628709 2.1166132c-1.4612768.0000006-2.645876 1.1845607-2.6458783 2.645791.0007622.5783158.1909913 1.1404545.5415783 1.6003963-.1814645-.375314-.2761337-.7866543-.2769907-1.2035322.0000028-1.5342914 1.2438321-2.778079 2.7781725-2.778079.4161913.0011689.8268022.0958286 1.2014975.2769859-.4593928-.3501483-1.0207531-.5403481-1.5983793-.541562z" fill="#c4dcf0"/><path id="path8686" d="m4.7325314 2.6431655c-.1353663.0155-.2367971.131338-.234379.267576v3.4391392c0 .3528548.529306.3528548.529306 0v-3.4391392c.0029-.1600376-.1359223-.2859358-.294927-.267576z" fill="#a0bf05" font-variant-ligatures="normal" font-variant-position="normal" font-variant-caps="normal" font-variant-numeric="normal" font-variant-alternates="normal" font-feature-settings="normal" text-indent="0" text-align="start" text-decoration-line="none" text-decoration-style="solid" text-decoration-color="#000000" text-transform="none" text-orientation="mixed" white-space="normal" shape-padding="0" isolation="auto" mix-blend-mode="normal" solid-color="#000000" solid-opacity="1" vector-effect="none"/><path id="path8850" d="m4.4982834 3.2968858v2.0432498c.088491-.0102.176959-.0256.2645875-.048599.087642.023.176075.038299.2645875.048599v-2.0432498c-.1019787.1070384-.1911833.2234167-.2645875.3482949-.0733813-.1247982-.1626458-.2412865-.2645875-.3482949z" fill="#809804" font-variant-ligatures="normal" font-variant-position="normal" font-variant-caps="normal" font-variant-numeric="normal" font-variant-alternates="normal" font-feature-settings="normal" text-indent="0" text-align="start" text-decoration-line="none" text-decoration-style="solid" text-decoration-color="#000000" text-transform="none" text-orientation="mixed" white-space="normal" shape-padding="0" isolation="auto" mix-blend-mode="normal" solid-color="#000000" solid-opacity="1" vector-effect="none"/><path id="circle8866" d="m6.0873605 2.4747179c-.2832828.0908987-.5470613.2448564-.764307.4625032-.4789732.4798529-.6674254 1.1818726-.4924855 1.8381029.0250431.0908239.0964907.1614824.1875893.1855172.6555642.1767374 1.3546541-.0100998 1.8340273-.4904027.173163-.1734875.3067723-.3762545.4004989-.5947912-.2103-.5902248-.6232487-1.0866639-1.165323-1.4009294z" fill="#c4dcf0"/><path id="path8826" d="m5.0550639 2.9374311c-.4789732.4798529-.6671364 1.1816326-.4921964 1.8378629.025018.090814.096431.1614804.1875032.1855472.6555642.1767374 1.3546421-.01 1.8340153-.4902327.4789592-.4798529.6671344-1.1796626.4921964-1.8359029-.0244165-.0915645-.0959358-.1630815-.1875032-.1874973-.3277816-.0883987-.6654783-.0868987-.9824388-.0019799-.3169604.0850187-.6118904.2520763-.8515765.4922027z" fill="#b4d305" font-variant-ligatures="normal" font-variant-position="normal" font-variant-caps="normal" font-variant-numeric="normal" font-variant-alternates="normal" font-feature-settings="normal" text-indent="0" text-align="start" text-decoration-line="none" text-decoration-style="solid" text-decoration-color="#000000" text-transform="none" text-orientation="mixed" white-space="normal" shape-padding="0" isolation="auto" mix-blend-mode="normal" solid-color="#000000" solid-opacity="1" vector-effect="none"/><path id="path8701" d="m12.435919 3.7051198c-1.605388 0-2.9099477 1.3149706-2.9099497 2.9294967.000688 1.2077422.7690397 2.2450869 1.8748527 2.6835104l.79118 1.8654921c.09056.216844.397786.216844.48835 0l.790663-1.8654921c1.105946-.4377435 1.873751-1.4760882 1.87537-2.6835104-.000002-1.6145261-1.305078-2.9294967-2.910466-2.9294967z" fill="#ffc6a0" font-variant-ligatures="normal" font-variant-position="normal" font-variant-caps="normal" font-variant-numeric="normal" font-variant-alternates="normal" font-feature-settings="normal" text-indent="0" text-align="start" text-decoration-line="none" text-decoration-style="solid" text-decoration-color="#000000" text-transform="none" text-orientation="mixed" white-space="normal" shape-padding="0" isolation="auto" mix-blend-mode="normal" solid-color="#000000" solid-opacity="1" vector-effect="none"/><path id="ellipse8703" d="m13.758858 6.6144668c0 .7306158-.5923 1.3228971-1.32294 1.322897-.730639.0000001-1.32294-.5922812-1.32294-1.322897s.592301-1.322897 1.32294-1.3228969c.73064-.0000001 1.32294.5922811 1.32294 1.3228969z" fill="#e4eff8"/><path id="path8777" d="m12.511367 13.448046-.507987.315225.407734.239777.495585-.307986.01189-.007z" fill="#c4dcf0" font-variant-ligatures="normal" font-variant-position="normal" font-variant-caps="normal" font-variant-numeric="normal" font-variant-alternates="normal" font-feature-settings="normal" text-indent="0" text-align="start" text-decoration-line="none" text-decoration-style="solid" text-decoration-color="#000000" text-transform="none" text-orientation="mixed" white-space="normal" shape-padding="0" isolation="auto" mix-blend-mode="normal" solid-color="#000000" solid-opacity="1" vector-effect="none"/><path id="path8791" d="m12.63996 11.249278c.01566-.0193.0298-.041.04031-.0661l.790669-1.8655221c1.105946-.4377435 1.873751-1.4760882 1.87537-2.6835104-.000001-.7783185-.305434-1.484858-.79941-2.0099553.534898 3.04859-1.453665 4.2180028-2.949186 5.1579889l.594289 1.4014389c.01072.0257.02475.0481.04082.0677 0 0 .0663.09489.201249.09493.134947.000038.205888-.09697.205888-.09697z" fill="#ffaf7a" font-variant-ligatures="normal" font-variant-position="normal" font-variant-caps="normal" font-variant-numeric="normal" font-variant-alternates="normal" font-feature-settings="normal" text-indent="0" text-align="start" text-decoration-line="none" text-decoration-style="solid" text-decoration-color="#000000" text-transform="none" text-orientation="mixed" white-space="normal" shape-padding="0" isolation="auto" mix-blend-mode="normal" solid-color="#000000" solid-opacity="1" vector-effect="none"/><path id="ellipse8799" d="m12.435919 5.2915664c-.730636-.0000001-1.322936.5922771-1.32294 1.3228904.000026.4855284.266029.9320279.692993 1.1632229-.106885-.1942844-.163216-.4123184-.163816-.6340607-.000002-.7306168.592298-1.3229 1.322938-1.3229005.219993.0000224.436508.054904.629947.1596777-.231588-.4240481-.675944-.6881152-1.159122-.6888298z" fill="#c4dcf0"/><path id="path8808" d="m3.5293338 9.1713691.9906539 2.3088759c.091732.213587.3945548.213587.4862833 0l1.1994306-2.7966887c1.6499232-.612221 2.7886956-2.1475983 2.7910917-3.9211521 0-1.3046508-.5927992-2.4710336-1.522414-3.2478121 2.2994363 5.4979089-2.9760959 7.4810796-3.9450455 7.656777z" fill="#ff2929"/><path id="path8690" d="m4.7628709 5.8207185c-.7144912.0013643-1.4035177.2654911-1.9358321.7420691.4999196.5383291 1.2011651.8445737 1.9358321.8454075.734722-.0013776 1.4357886-.3081873 1.9353151-.8469575-.5324102-.4758971-1.2212059-.7394544-1.9353151-.7405191z" fill="#ffc6a0"/><path id="path8834" d="m5.5447483 5.9328569c-.3195523.6459681-.8887918 1.1336341-1.576158 1.3502901.2568434.0819023.5246958.1240718.7942806.1250481.734722-.0013776 1.4357886-.3081873 1.9353151-.8469575-.3315719-.2946131-.7260972-.5095464-1.1534377-.6283807z" fill="#ffaf7a"/><path id="path8846" d="m2.6370535 2.4472483c-.091568.024416-.1630867.095933-.1875032.1874973-.17494.6562403.01324 1.35605.4921954 1.8359029.4793732.4802729 1.1784512.6669701 1.8340164.4902327.0910731-.0240668.1624849-.0947336.1875032-.1855472.174939-.6562303-.0132402-1.35801-.4921964-1.8378629-.2396861-.2401264-.5346161-.407204-.8515766-.4922027-.3169614-.0850188-.6546572-.0864188-.9824388.0019799z" fill="#c5e705" font-variant-ligatures="normal" font-variant-position="normal" font-variant-caps="normal" font-variant-numeric="normal" font-variant-alternates="normal" font-feature-settings="normal" text-indent="0" text-align="start" text-decoration-line="none" text-decoration-style="solid" text-decoration-color="#000000" text-transform="none" text-orientation="mixed" white-space="normal" shape-padding="0" isolation="auto" mix-blend-mode="normal" solid-color="#000000" solid-opacity="1" vector-effect="none"/></g></svg>