<svg id="svg8" height="512" viewBox="0 0 16.933333 16.933333" width="512" xmlns="http://www.w3.org/2000/svg" xmlns:svg="http://www.w3.org/2000/svg"><g id="layer2"><path id="path8869" d="m.52916818 4.7625088c.0025 1.84379 1.16287502 3.3952198 2.81693592 3.9826401l.260971.6092495c-1.5288009.7955506-2.93527792 1.5223606-2.93527792 1.5223606-.175662.0903-.194366.34586-.02326.45733l7.67409882 5.02699c.0857.056.1959811.0577.283192.004l7.673582-4.76393c.170592-.1062.165187-.35598-.0098-.45474l-2.887218-1.6195106.0615-.14469c1.118352-.4212196 1.900563-1.4926196 1.902246-2.7475897-.000002-1.6143499-1.299217-2.93024-2.910473-2.9305199-1.611255.000291-2.9099532 1.31617-2.9099561 2.9305199.0003704.27398.03993.5384901.110073.7901199l-1.0397501-.5828998c-.03691-.0201-.06966-.0306-.09922-.0336-.010811-.00101-.020349.00101-.03049.00201.3360578-.6057.5291809-1.30206.530189-2.0479-.0000006-2.33546-1.8953608-4.23270004-4.2339296-4.23317504-2.338569.000645-4.23341302 1.89788504-4.23341302 4.23333504zm7.93765302-.00103c-.0022 1.60695-1.038906 3.0285099-2.568368 3.5216898-.07188.023699-.1302171.0768-.1601999.14624l-.9746372 2.2757904-.00101-.003-.00101.003-.974643-2.2757904c-.02996-.0695-.0883-.1225598-.1601798-.14624-1.5294621-.4931799-2.5656821-1.9147398-2.5678521-3.5216898 0-2.0485 1.659406-3.7019901 3.703692-3.7025501 2.044285.000561 3.704208 1.6540501 3.704208 3.7025501zm-5.3791072-2.37707c-.150424.004-.301938.0228-.451144.063-.09157.0244-.162655.096-.187072.18758-.03973.14905-.05838.30016-.0615.45061-.841676 1.19122-.672453 2.8356001.412903 3.82658 1.112328 1.0155999 2.822461 1.0128599 3.9316179-.006 1.079972-.9922502 1.2445449-2.6328401.4051511-3.82088-.0032-.15029-.02181-.30122-.0615-.4501-.02442-.0916-.09602-.16316-.187589-.18758-.1504069-.0405-.302623-.0602-.4542441-.0636-.495585-.34817-1.0733349-.52646-1.6531578-.530255-.592776-.00406-1.1859941.173385-1.6934651.530645zm2.5420062.16122c-.2109182.0934-.4071234.22334-.5751732.3917-.1147051.11492-.2116219.2431199-.291977.37982-.08033-.1366101-.1773391-.26496-.291978-.37982-.1678821-.16819-.3639801-.29778-.574653-.39118.2835539-.11122.583184-.16717.8826526-.16536.2891798.002.5776106.0578.8511286.16484zm.967918.37935c.063527.4882299-.1092409.89107-.3886199 1.17097-.279436.2799599-.6976661.4570799-1.1689429.38705-.06017-.47899.1082219-.8905801.3875809-1.17045.2445861-.2450401.590518-.4097301.993759-.401545.057613.000975.116393.00497.1762229.013975zm-2.5001539.3874903c.2793529.2798699.4510979.6997998.386547 1.17148-.4660187.0664999-.8899388-.1080301-1.1694658-.3880805-.2793613-.2798799-.4496443-.7099498-.3865543-1.1699398.05931-.008.117864-.0128.1751935-.013925.4012666-.00802.7496935.155425.9942796.4004653zm2.8810139.5766996c.3017258.7638601.187701 1.6389101-.313165 2.3031799-.488365-.3665098-1.0572801-.5732698-1.6376581-.6216599v-.5586101c.569737.0657 1.144325-.1285898 1.5565241-.54156.169585-.1698998.3008328-.3679999.394299-.5813499zm-4.037041.5813592c.412224.413.986762.6072902 1.5565239.54156v.55758c-.5817349.048501-1.1513809.257161-1.6397249.6237208-.500377-.66412-.612873-1.53934-.310581-2.3037003.09345.2131195.224365.4111096.393782.5808395zm9.4941768-.2382398c1.3055.000291 2.380778 1.0718098 2.38078 2.4023999-.0014 1.04326-.667082 1.9635801-1.650061 2.28302-.073.023601-.132308.0782-.162267.14883l-.568452 1.33529-.567934-1.33529c-.02996-.0706-.08927-.12519-.162268-.14883-.982979-.3194399-1.64866-1.23976-1.65006-2.28302.000002-1.3305901 1.074763-2.4021099 2.380262-2.4023999zm0 .7952898c-.878803 0-1.588047.7138699-1.588047 1.5874701 0 .8735999.707178 1.58696 1.588047 1.58696.88087 0 1.588047-.7133601 1.588048-1.58696 0-.8736002-.709245-1.5874701-1.588048-1.5874701zm0 .5291601c.581446 0 1.058871.47069 1.058871 1.05831 0 .5876301-.479492 1.0577999-1.058871 1.0577999-.579378 0-1.058353-.4701698-1.058353-1.0577999 0-.58762.476908-1.05831 1.058353-1.05831zm-7.9376529.54259v.2501098c0 .3531201.529694.3531201.529694 0v-.2495899c.447508.0459.8857159.20559 1.269198.48006-.887186.74994-2.181892.75086-3.06964.0005292.3834342-.2747.8222419-.4353399 1.270748-.4811091zm3.9786461 1.2815498 1.5270678.8567801c.327514.50135.804334.8959601 1.372035 1.1223895l-2.9078888 1.6655106-2.60971-1.5316706.3209168-.7487695c.5743922-.20399 1.0875902-.5264499 1.5151822-.9348099.2665019-.1419202.535295-.2904001.782397-.4294302zm3.1414698 2.4504606.57362 1.3523396c.04522.10819.144407.16208.243917.16226.09951-.00018.199213-.0541.244435-.16226l.494553-1.166829 2.444859 1.371469c-.299503.18589-1.697459 1.05296-3.175578 1.96987l-3.4489517-2.02361zm-7.8017408.01.702813 1.6391396c.04585.10684.1447411.1602.243401.1602.09866 0 .1975499-.0534.2434-.1602l.6423509-1.4970406 2.2913771 1.3446006-3.3791871 1.93525-3.2422419-2.12438c.286099-.14806 1.24671-.64619 2.498087-1.2975806zm4.6499348 1.7962406 3.469623 2.03601c-1.615724 1.002269-3.3400909 2.071939-3.4670388 2.150739l-3.4101931-2.23445z" font-variant-ligatures="normal" font-variant-position="normal" font-variant-caps="normal" font-variant-numeric="normal" font-variant-alternates="normal" font-feature-settings="normal" text-indent="0" text-align="start" text-decoration-line="none" text-decoration-style="solid" text-decoration-color="rgb(0,0,0)" text-transform="none" text-orientation="mixed" white-space="normal" shape-padding="0" isolation="auto" mix-blend-mode="normal" solid-color="rgb(0,0,0)" solid-opacity="1" vector-effect="none"/></g></svg>