<svg id="Capa_1" enable-background="new 0 0 512 512" height="512" viewBox="0 0 512 512" width="512" xmlns="http://www.w3.org/2000/svg"><g><g><g><path d="m415.317 163.273h15.469v215.454h-15.469z" fill="#a3db4b"/></g><g><path d="m218.341 248.312h15.469v136.13h-15.469z" fill="#a3db4b"/></g><g><path d="m61.586 326.689h15.469v57.752h-15.469z" fill="#a3db4b"/></g></g><g><path d="m501.816 271.795c-8.827-1.512-38.439-4.973-57.751 12.224-14.659 13.054-19.156 32.534-20.494 44.875-.067.615-.955.616-1.022 0-1.345-12.342-5.851-31.822-20.51-44.876-10.203-9.086-23.282-12.405-34.651-13.292 0 0-15.295 3.32-19.458 4.033-1.51.259-2.594 1.577-2.553 3.108.232 8.743.708 30.067 19.946 47.198 16.702 14.873 38.871 18.328 50.665 16.745 2.743-.368 4.824-.773 5.998-1.025.716-.153 1.443-.153 2.159 0 6.218 1.333 37.907 6.97 58.492-11.361 19.238-17.131 21.502-45.778 21.733-54.522.04-1.53-1.045-2.849-2.554-3.107z" fill="#b4e555"/><path d="m493.635 184.466c-8.299-1.383-34.507-4.232-51.671 11.053-13.015 11.59-17.129 28.81-18.394 39.936-.069.607-.951.607-1.02 0-1.271-11.126-5.393-28.346-18.409-39.936-9.18-8.175-20.947-11.163-31.178-11.963l-18.502 3.931s-2.375 25.279 14.723 40.505c15.036 13.389 36.906 20.963 47.517 19.538 2.382-.32 4.209-.671 5.281-.898.713-.151 1.448-.151 2.161 0 5.848 1.24 34.124 6.146 52.534-10.248 17.099-15.226 19.299-40.561 19.551-48.768.048-1.554-1.059-2.894-2.593-3.15z" fill="#b4e555"/><g><path d="m401.483 133.832c.597 20.297 13.953 30.801 19.593 35.685 1.144.99 2.826 1.005 3.991.039 3.325-2.758 15.269-12.574 15.269-12.574 3.977-6.59 6.995-14.572 6.734-23.441-.596-20.246-16.321-36.197-21.998-41.311-.928-.836-2.235-1.012-3.323-.523-.268.12-.808.969-1.041 1.17-5.926 5.112-19.824 20.622-19.225 40.955z" fill="#b4e555"/></g><g fill="#a3db4b"><path d="m415.568 116.107c-.584-9.072 2.298-17.445 6.179-24.399-.268.12-.522.28-.755.481-5.925 5.111-22.556 21.309-21.958 41.643.597 20.297 16.401 35.753 22.041 40.636 1.144.99 2.826 1.005 3.991.039 3.325-2.758 10.106-8.969 15.269-17.525-3.953-2.987-23.339-18.717-24.767-40.875z"/><path d="m372.962 183.556c-9.414-.733-17.528.381-21.12 1.015-1.159.205-1.993 1.215-1.968 2.392.158 7.429 1.991 33.766 19.57 49.42 15.031 13.385 36.641 12.571 47.257 11.147-22.362-14.117-38.577-37.078-43.739-63.974z"/><path d="m367.388 270.727c-10.46-.814-19.476.424-23.466 1.129-1.288.227-2.215 1.351-2.187 2.658.176 8.254 2.212 37.518 21.744 54.911 16.701 14.872 40.712 13.968 52.508 12.386-24.848-15.687-42.865-41.201-48.599-71.084z"/></g></g><g><g><path d="m204.792 216.335c.597 20.297 13.668 32.78 19.307 37.664 1.144.99 2.826 1.005 3.991.039 3.325-2.758 15.269-14.553 15.269-14.553 3.977-6.59 6.995-14.572 6.734-23.441-.596-20.246-16.321-36.197-21.998-41.311-.928-.836-2.235-1.012-3.323-.523-.268.12-.771.794-1.004.995-5.925 5.112-19.574 20.797-18.976 41.13z" fill="#b4e555"/></g><path d="m218.593 198.61c-.584-9.072 2.298-17.445 6.179-24.399-.268.12-.522.28-.755.481-5.925 5.111-22.556 21.309-21.958 41.643.597 20.297 16.401 35.753 22.041 40.636 1.144.991 2.826 1.005 3.991.039 3.325-2.758 10.106-8.969 15.269-17.525-3.954-2.987-23.34-18.717-24.767-40.875z" fill="#a3db4b"/><g><path d="m296.659 266.969c-8.299-1.383-34.507-4.232-51.671 11.053-13.014 11.589-17.129 28.806-18.394 39.933-.069.607-.952.607-1.021 0-1.271-11.126-5.394-28.344-18.409-39.933-9.18-8.175-20.948-11.163-31.178-11.962-8.898-.695-19.6 1.831-20.191 1.935-1.532.269-1.825.354-1.777 1.909.253 8.207 2.69 33.132 20.055 48.054 9.186 7.894 35.041 13.503 45.652 12.078 2.723-.366 4.721-.772 5.695-.988.443-.098.89-.098 1.333 0 4.769 1.057 34.054 6.666 52.948-10.159 17.099-15.226 19.299-40.56 19.551-48.768.049-1.556-1.058-2.896-2.593-3.152z" fill="#b4e555"/><path d="m175.986 266.059c-9.414-.733-17.528.381-21.12 1.015-1.159.205-1.993 1.215-1.968 2.392.158 7.429 1.991 33.766 19.57 49.42 15.031 13.385 36.641 12.571 47.257 11.147-22.362-14.117-38.577-37.078-43.739-63.974z" fill="#a3db4b"/></g></g><g><path d="m47.51 295.571c.597 20.297 14.194 33.037 19.834 37.921 1.144.99 2.552.506 3.991.039.663-.215 10.105-6.253 15.269-14.81 3.977-6.59 6.995-14.572 6.734-23.441-.596-20.246-16.321-36.197-21.998-41.311-.928-.836-2.235-1.012-3.323-.523-.268.12-.498.436-.73.636-5.926 5.112-20.375 21.155-19.777 41.489z" fill="#b4e555"/><path d="m61.837 277.846c-.584-9.072 2.298-17.445 6.179-24.399-.268.12-.522.28-.755.481-5.925 5.111-22.556 21.309-21.958 41.643.597 20.297 16.401 35.753 22.041 40.636 1.144.99 2.826 1.005 3.991.039 3.325-2.758 10.106-8.969 15.269-17.525-3.954-2.988-23.34-18.717-24.767-40.875z" fill="#a3db4b"/></g><g><path d="m493.512 383.454c-2.494-.779-5.915-.958-10.551 1.155-.768.35-1.687.205-2.28-.395-4.615-4.668-11.014-7.562-18.09-7.562-4.784 0-9.256 1.325-13.079 3.624-.868.522-1.984.337-2.628-.444-5.45-6.615-13.692-10.835-22.923-10.835-9.457 0-17.876 4.43-23.318 11.328-.569.722-1.564.965-2.404.591-3.686-1.644-7.764-2.563-12.059-2.563-7.592 0-14.514 2.855-19.767 7.548-.618.552-1.482.705-2.24.37-3.147-1.392-7.623-2.306-12.279-1.142-4.195 1.048-7.695 2.969-10.585 5.482-.895.778-2.234.651-2.98-.271-2.605-3.222-5.816-5.678-9.693-6.886-2.5-.779-5.928-.958-10.574 1.157-.767.349-1.685.204-2.278-.394-4.624-4.669-11.035-7.565-18.126-7.565-4.794 0-9.276 1.326-13.107 3.627-.867.521-1.982.336-2.626-.444-5.46-6.617-13.718-10.838-22.967-10.838-9.476 0-17.911 4.432-23.362 11.331-.569.721-1.563.964-2.402.59-3.693-1.645-7.781-2.565-12.085-2.565-7.605 0-14.541 2.855-19.802 7.548-.619.552-1.484.705-2.243.37-3.152-1.392-7.637-2.306-12.302-1.143-4.204 1.048-7.712 2.971-10.608 5.485-.896.778-2.234.65-2.979-.274-2.6-3.223-5.806-5.678-9.676-6.886-2.494-.779-5.915-.958-10.551 1.155-.768.35-1.687.205-2.28-.395-4.615-4.668-11.014-7.562-18.09-7.562-4.784 0-9.256 1.325-13.079 3.624-.868.522-1.984.337-2.628-.444-2.263-2.747-5.011-5.077-8.109-6.867-4.361-2.52-14.103-.716-15.41-.372-9.016 2.371-16.187 3.571-21.629 10.468-.569.722-1.564.965-2.404.591-3.686-1.644-8.739-2.326-13.034-2.326-7.591 0-14.275 3.714-19.527 8.407-.618.552-1.482.705-2.24.37-3.147-1.392-4.208-2.48-8.865-1.317-14.139 3.532-20.196 16.539-21.624 29.227h110.49l4.308 2.549h388.015c3.069 0 5.427-2.659 5.129-5.714-1.269-13.048-6.9-27.785-18.459-31.393z" fill="#d2af8c"/><g><path d="m108.509 379.285c0-2.126.105-4.232.254-6.32-4.361-2.521-9.417-3.967-14.814-3.967-9.457 0-17.876 4.43-23.318 11.328-.57.722-1.564.965-2.404.591-3.686-1.644-7.764-2.563-12.059-2.563-7.592 0-14.515 2.855-19.767 7.548-.618.552-1.482.705-2.24.37-3.146-1.392-7.623-2.306-12.279-1.142-14.139 3.532-20.421 16.958-21.849 29.647-.346 3.078 2.026 5.786 5.123 5.786h113.673c-6.579-12.303-10.32-26.352-10.32-41.278z" fill="#c9a281"/></g></g></g></svg>