<?xml version="1.0" encoding="UTF-8" standalone="no"?>
<!-- Created with Inkscape (http://www.inkscape.org/) -->

<svg
   version="1.1"
   id="svg2880"
   xml:space="preserve"
   width="682.66669"
   height="682.66669"
   viewBox="0 0 682.66669 682.66669"
   xmlns="http://www.w3.org/2000/svg"
   xmlns:svg="http://www.w3.org/2000/svg"><defs
     id="defs2884"><clipPath
       clipPathUnits="userSpaceOnUse"
       id="clipPath2894"><path
         d="M 0,512 H 512 V 0 H 0 Z"
         id="path2892" /></clipPath></defs><g
     id="g2886"
     transform="matrix(1.3333333,0,0,-1.3333333,0,682.66667)"><g
       id="g2888"><g
         id="g2890"
         clip-path="url(#clipPath2894)"><g
           id="g2896"
           transform="translate(222.2935,18.5928)"><path
             d="m 0,0 h -101.237 c -33.23,62.872 -80.091,93.371 -113.556,107.905 V 158.57 C -160.445,149.519 -64.389,116.759 0,0 Z"
             style="fill:none;stroke:#000000;stroke-width:15;stroke-linecap:round;stroke-linejoin:round;stroke-miterlimit:10;stroke-dasharray:none;stroke-opacity:1"
             id="path2898" /></g><g
           id="g2900"
           transform="translate(121.0566,18.5928)"><path
             d="M 0,0 H -113.557 V 107.905 C -80.091,93.371 -33.23,62.872 0,0 Z"
             style="fill:none;stroke:#000000;stroke-width:15;stroke-linecap:round;stroke-linejoin:round;stroke-miterlimit:10;stroke-dasharray:none;stroke-opacity:1"
             id="path2902" /></g><g
           id="g2904"
           transform="translate(504.5,179.9404)"><path
             d="m 0,0 v -161.35 c -15.07,21.281 -44.39,57.5 -91.45,95.5 C -79.71,-44.64 -51.89,-6.909 0,0 Z"
             style="fill:none;stroke:#000000;stroke-width:15;stroke-linecap:round;stroke-linejoin:round;stroke-miterlimit:10;stroke-dasharray:none;stroke-opacity:1"
             id="path2906" /></g><g
           id="g2908"
           transform="translate(384.8115,211.2412)"><path
             d="m 0,0 c -22.445,-15.642 -39.497,-32.528 -49.852,-43.94 30.161,-17.23 56.071,-35.411 78.09,-53.21 11.741,21.21 39.561,58.94 91.45,65.849 V 40 C 83.671,40.475 51.519,29.738 24.665,15.23"
             style="fill:none;stroke:#000000;stroke-width:15;stroke-linecap:round;stroke-linejoin:round;stroke-miterlimit:10;stroke-dasharray:none;stroke-opacity:1"
             id="path2910" /></g><g
           id="g2912"
           transform="translate(73.9351,252.334)"><path
             d="m 0,0 c -21.242,2.823 -43.376,4.957 -66.435,6.297 v -38.06 c 25.406,-1.688 60.557,-5.999 99.81,-16.429 C 22.211,-34.865 9.922,-18.268 0,0 Z"
             style="fill:none;stroke:#000000;stroke-width:15;stroke-linecap:round;stroke-linejoin:round;stroke-miterlimit:10;stroke-dasharray:none;stroke-opacity:1"
             id="path2914" /></g><g
           id="g2916"
           transform="translate(236.5688,147.874)"><path
             d="m 0,0 c 45.924,-29.672 89.747,-71.195 123.961,-129.283 h 143.97 c -15.07,21.28 -44.389,57.5 -91.45,95.5 -22.02,17.8 -47.93,35.98 -78.09,53.21 -26.979,15.41 -57.349,30.05 -91.39,42.98 -17.61,6.682 -36.208,12.898 -55.812,18.522 -11.172,-16.183 -23.111,-30.045 -32.482,-40.066 18.395,-6.987 37.159,-15.446 55.807,-25.674"
             style="fill:none;stroke:#000000;stroke-width:15;stroke-linecap:round;stroke-linejoin:round;stroke-miterlimit:10;stroke-dasharray:none;stroke-opacity:1"
             id="path2918" /></g><g
           id="g2920"
           transform="translate(211.0815,163.0625)"><path
             d="m 0,0 c -18.648,10.228 -37.412,18.687 -55.807,25.674 -0.073,-0.079 -0.149,-0.16 -0.222,-0.238 -9.175,-9.794 -24.704,-9.794 -33.879,0 -4.196,4.478 -8.919,9.741 -13.862,15.641 -39.254,10.432 -74.405,14.74 -99.812,16.427 V 14.101 C -149.233,5.049 -53.177,-27.711 11.212,-144.47 H 149.447 C 115.232,-86.385 71.41,-44.861 25.487,-15.19"
             style="fill:none;stroke:#000000;stroke-width:15;stroke-linecap:round;stroke-linejoin:round;stroke-miterlimit:10;stroke-dasharray:none;stroke-opacity:1"
             id="path2922" /></g><g
           id="g2924"
           transform="translate(138.1133,282.1006)"><path
             d="m 0,0 c -20.257,0 -36.679,16.421 -36.679,36.678 0,20.257 16.422,36.678 36.679,36.678 20.257,0 36.678,-16.421 36.678,-36.678 C 36.678,16.421 20.257,0 0,0 Z m 0,120.368 c -46.221,0 -83.69,-37.47 -83.69,-83.69 0,-0.908 0.02,-1.812 0.048,-2.714 1.439,-50.706 42.679,-101.924 66.703,-127.567 9.175,-9.793 24.703,-9.793 33.878,0 24.024,25.643 65.264,76.861 66.703,127.567 0.028,0.902 0.048,1.806 0.048,2.714 0,46.22 -37.469,83.69 -83.69,83.69 z"
             style="fill:none;stroke:#000000;stroke-width:15;stroke-linecap:round;stroke-linejoin:round;stroke-miterlimit:10;stroke-dasharray:none;stroke-opacity:1"
             id="path2926" /></g><g
           id="g2928"
           transform="translate(409.4766,226.4727)"><path
             d="M 0,0 C 26.854,14.507 59.006,25.243 95.023,24.769 V 79.548 C 77.24,81.296 60.081,81.363 43.611,80.106 35.396,69.422 27.272,60.182 20.513,52.966 c -9.175,-9.794 -24.703,-9.794 -33.878,0 -3.722,3.972 -7.857,8.558 -12.193,13.662 -67.756,-21.355 -117.221,-61.293 -140.349,-82.819 34.041,-12.931 64.411,-27.571 91.39,-42.981 10.355,11.412 27.406,28.299 49.852,43.941"
             style="fill:none;stroke:#000000;stroke-width:15;stroke-linecap:round;stroke-linejoin:round;stroke-miterlimit:10;stroke-dasharray:none;stroke-opacity:1"
             id="path2930" /></g><g
           id="g2932"
           transform="translate(413.0498,373.041)"><path
             d="m 0,0 c -20.257,0 -36.678,16.421 -36.678,36.678 0,20.258 16.421,36.678 36.678,36.678 20.257,0 36.679,-16.42 36.679,-36.678 C 36.679,16.421 20.257,0 0,0 Z m 0,120.368 c -46.221,0 -83.689,-37.47 -83.689,-83.69 0,-0.908 0.019,-1.812 0.047,-2.713 1.439,-50.707 42.679,-101.925 66.703,-127.568 9.175,-9.793 24.704,-9.793 33.878,0 24.024,25.643 65.264,76.861 66.703,127.568 0.028,0.901 0.048,1.805 0.048,2.713 0,46.22 -37.469,83.69 -83.69,83.69 z"
             style="fill:none;stroke:#000000;stroke-width:15;stroke-linecap:round;stroke-linejoin:round;stroke-miterlimit:10;stroke-dasharray:none;stroke-opacity:1"
             id="path2934" /></g></g></g></g></svg>
