<svg id="Layer_1" viewBox="0 0 512 512" xmlns="http://www.w3.org/2000/svg" data-name="Layer 1"><path d="m60.742 174.278a211.407 211.407 0 0 1 233.574-126.447l-15.554-28.5a6.975 6.975 0 1 1 12.25-6.672l22.917 41.991a6.985 6.985 0 0 1 -2.488 9.3l-40.841 24.9a6.983 6.983 0 0 1 -7.274-11.922l25.928-15.81a197.75 197.75 0 0 0 -224.536 244.97 6.983 6.983 0 1 1 -13.507 3.554 211.907 211.907 0 0 1 9.531-135.364zm172.5 318.386-15.558-28.5a211.706 211.706 0 0 0 243.121-261.779 6.977 6.977 0 0 0 -13.508 3.5 197.65 197.65 0 0 1 -224.561 245l25.936-15.815a6.983 6.983 0 0 0 -7.272-11.92l-40.84 24.9a6.987 6.987 0 0 0 -2.489 9.3l22.917 41.986a6.975 6.975 0 0 0 12.251-6.672zm100.813-240.621a27.344 27.344 0 0 1 -8.48-31.643 4.985 4.985 0 0 0 -3.962-6.84 27.184 27.184 0 0 1 -23.172-23.16 4.985 4.985 0 0 0 -6.851-3.956 27.182 27.182 0 0 1 -31.643-8.487 4.983 4.983 0 0 0 -7.9-.012 27.342 27.342 0 0 1 -31.643 8.479 4.984 4.984 0 0 0 -6.839 3.963 27.185 27.185 0 0 1 -23.165 23.172 4.984 4.984 0 0 0 -3.955 6.85 27.183 27.183 0 0 1 -8.487 31.643 5 5 0 0 0 -.013 7.9 27.346 27.346 0 0 1 8.48 31.644 4.984 4.984 0 0 0 3.962 6.839 27.184 27.184 0 0 1 23.172 23.16 4.985 4.985 0 0 0 6.851 3.956 27.184 27.184 0 0 1 31.643 8.487 4.984 4.984 0 0 0 7.9.012 27.345 27.345 0 0 1 31.643-8.479 4.984 4.984 0 0 0 6.839-3.962 27.184 27.184 0 0 1 23.165-23.168 4.984 4.984 0 0 0 3.955-6.851 27.184 27.184 0 0 1 8.487-31.643 4.984 4.984 0 0 0 .013-7.904zm-78.055 54.391a50.435 50.435 0 1 1 50.435-50.434 50.437 50.437 0 0 1 -50.435 50.434zm0-86.868a36.434 36.434 0 1 0 36.434 36.434 36.433 36.433 0 0 0 -36.434-36.434zm155.221-200.966a82.176 82.176 0 1 0 82.179 82.179 82.176 82.176 0 0 0 -82.179-82.179zm32.945 106.81c-2.684 16.215-15.945 30.436-32.945 30.436s-30.261-14.221-32.946-30.436a53.17 53.17 0 0 1 .693-19.25c2.928-14.421 10.242-27.444 17.094-39.645 3.271-5.824 6.431-11.45 8.788-16.68a6.987 6.987 0 0 1 12.741 0c2.357 5.23 5.516 10.856 8.787 16.679 6.852 12.2 14.167 25.224 17.1 39.646a53.125 53.125 0 0 1 .688 19.253zm-32.946 16.439c10.157 0 17.6-9.233 19.164-18.679a39.609 39.609 0 0 0 -.584-14.27c-2.46-12.115-9.254-24.212-15.618-35.544-1-1.784-1.994-3.551-2.962-5.3q-1.453 2.631-2.963 5.3c-6.364 11.33-13.157 23.426-15.617 35.544a39.609 39.609 0 0 0 -.583 14.273c1.564 9.445 9.007 18.679 19.163 18.679zm-310.441 187.2a82.177 82.177 0 1 0 82.177 82.176 82.177 82.177 0 0 0 -82.177-82.181zm7 115.988v14.533a7 7 0 1 1 -14 0v-14.538c-30.778-22.053-29.067-68.44 3.39-88.116a6.97 6.97 0 0 1 7.353.081 52.786 52.786 0 0 1 3.257 88.035zm-7-12.163a38.94 38.94 0 0 0 0-61.55 38.953 38.953 0 0 0 0 61.545z" fill-rule="evenodd"/></svg>