<svg id="svg8" height="512" viewBox="0 0 16.933333 16.933333" width="512" xmlns="http://www.w3.org/2000/svg" xmlns:svg="http://www.w3.org/2000/svg"><g id="layer2"><path id="path7542" d="m7.9707833 4.744987c.00169.9546399.3279252 1.8870799.9353201 2.6391499l-.364826 1.82472c-.04045.2090301.1700749.3778499.365343.2930099l1.8174146-.8066799c.205824.0779.417252.1393802.633021.1829401l-.50745 4.32124c-.09362.75982.598597 1.35342 1.3203 1.35342.721702 0 1.415976-.5936 1.322367-1.35442l-.507966-4.3149801c1.952138-.3726201 3.419859-2.08564 3.419859-4.13933 0-2.3252099-1.88666-4.21478993-4.216691-4.21483993-2.3300305-.00005-4.2166924 1.88959003-4.2166917 4.21577003zm7.9042307-.00103c0 2.03914-1.66019 3.6876799-3.687539 3.6876799-.470433-.000979-.936771-.0917-1.373008-.2676898-.06611-.0263-.140098-.024699-.20515.004l-1.4510384.6444103.2909308-1.4469599c.0161-.0799-.0053-.16295-.05839-.2248001-.5731002-.6669-.8887531-1.5175798-.8903631-2.3967799 0-2.03914 1.6575037-3.6851 3.6870207-3.6850303 2.029517.0000698 3.687537 1.6460298 3.687537 3.6851697zm-4.239945-2.36733c-.198826.0117-.362826.26917-.175696.45631l.100767.10077c-.112618.13723-.18293.30995-.18293.5002299 0 .1192101.02783.2317699.07545.3333202-.207458.0783-.376263.2230498-.483162.4066998l-.386018-.13178v-.3395199c.0025-.13618-.0988-.252-.23409-.2676801-.0091-.00101-.01823-.00201-.02739-.00201-.149372-.00201-.270587.1203891-.267677.2697493v.5291699c-.000068.1127299.07129.21312.177763.2501201l.618552.2103199c.0022.11757.0096.22899.02067.3348699l-.545173.009c-.09719.00201-.185676.0564-.230472.1426299l-.2656064.5157402c-.1522849.3109298.3066994.5467299.4707604.2418498l.193265-.3746586.472311-.0103c.03878.1364703.08499.2610001.137456.3725903l-.369995.1844899c-.09114.0436-.149475.1351399-.150375.23616v.5291799c0 .35287.529153.35287.529153 0v-.36278l.277495-.1348704c.01838.0215.04022.0441.05891.0641.328144.3509402.658342.4258202.658342.4258202.02084.005.0422.008.06356.008s.04272-.003.06356-.008c0 0 .330197-.0749.658342-.4258202.01869-.02.04053-.0425.05891-.0641l.277496.1348701v.36278c0 .35287.529153.35287.529153 0v-.5291799c-.0009-.1010201-.05924-.19255-.150375-.23616l-.369994-.1844899c.05247-.1115902.09868-.23612.137455-.3725903l.472311.0103.193265.37465c.164061.3048899.623046.0691.470761-.24184l-.26561-.5157304c-.0448-.0863-.133282-.14103-.230472-.14263l-.545172-.009c.01107-.1058799.01842-.2172999.02067-.3348699l.618551-.2103207c.106475-.037.17783-.1373902.177762-.2501202v-.5291798c.0029-.14936-.118306-.2715202-.267678-.2697501-.0092.00021-.0183.0008731-.02739.00201-.135291.0157-.236577.1315101-.234089.2676901v.3395199l-.386009.13178c-.106899-.18365-.275705-.3284199-.483163-.4066998.04762-.1015503.07545-.2141101.07545-.3333202 0-.1902799-.07031-.3629999-.18293-.5002299l.100767-.10077c.18713-.18714.02313-.44462-.175696-.45631-.06628-.004-.136056.0193-.198432.0817l-.196883.19689c-.04562-.008-.09196-.0139-.140556-.0139-.0486 0-.09494.006-.140556.0139l-.196886-.196899c-.06238-.0624-.132155-.0855-.198432-.0817zm.800448 1.0573099c0 .1492602-.118939.2656202-.264577.2656202-.145637 0-.264577-.11636-.264577-.2656202 0-.14926.121005-.2635499.264577-.2635499.143557 0 .264577.1142899.264577.2635499zm-.529152.79376v.7948001c0 .17643.132289.2645799.264578.2645799.132288 0 .264577-.0882.264577-.2645799v-.7948001h.08785c.260706 0 .441823.18684.441823.3829301 0 .8032099-.236081 1.2340199-.459391 1.46866-.146909.1543601-.301509.2339801-.334857.2490899-.03335-.0151-.187951-.0947-.334856-.2490899-.223312-.2346401-.459392-.6654501-.459392-1.46866 0-.1960901.181118-.3829301.441821-.3829301zm-10.3655195 1.7472101c-.310812.0137-.61755288.1068899-.88829487.27905-.08117.0512-.128231.14239-.122987.23823.0347.6407701.41249599 1.2161499.98647787 1.5100099.573488.29361 1.259394.2642201 1.8008791-.0801.08117-.0512.12823-.14239.122987-.23823-.0347-.64077-.4124971-1.2161499-.9864791-1.5100099-.286744-.1468-.60177-.21263-.912583-.19895zm.672295.66973c.321942.1648198.59441.4773499.680561.9074499-.389157.1812999-.815795.1439702-1.137369-.0207-.357082-.1937602-.596582-.4932899-.680562-.9090001.177959-.0797.34542-.1147199.498665-.1203949.255408-.00898.472405.062215.638705.1426451zm1.7833089.4532098s.7730252.5289302.8495392 1.7683901c-.1131591-.015999-.2467742-.0377-.3927311-.0615-.277718-.0452-.5975159-.0926-.913616-.0956-.2107319-.00201-.420166.015999-.623719.077-1.387165.45813-2.21625087 1.4526201-2.26905587 3.1295701 0 1.82504 1.11484087 3.73688 2.71087777 4.41426.3415372.13193.6740052.0613.9627082-.0155.3058099-.0819.5531479-.16175.7658258-.16175.2126771 0 .47649.085.7653081.16175.2888189.0767.6195949.1477.9570241.0176.0028-.001.0055-.002.0083-.004 1.6215529-.68817 2.7088089-2.61985 2.7088089-4.41273-.01002-.32274-.04989-.61526-.1152361-.88626-.04147-.1736-.2393789-.2572-.3927309-.16589-.147516.0884-.3163652.13604-.48833.13643-.5272-.001-.9518431-.42379-.9528889-.95396.0005556-.0801.009-.1591199.02894-.2356498.05494-.2122199-.1572138-.3953801-.359142-.3100599-.05717.024299-.11773.0365-.1798298.0367-.2540032 0-.4636971-.20452-.4645592-.46561.000198-.017899.0000612-.035.00209-.0517.01992-.16653-.118137-.3093399-.2852439-.2950699-.3505652.031-.6947752.0934-.9441042.1322898-.07718-1.5376898-1.0851779-2.2004099-1.0851779-2.2004099-.04361-.0302-.09528-.0466-.1483376-.0468252-.2670264-.0028252-.3705134.3459749-.1447196.4885247zm7.8861436 1.8531401c.101868.008.203729.01.304884.01.09175 0 .181554-.004.27181-.009l.507451 4.3093191c.05035.40379-.348044.76272-.796831.76272s-.845111-.35893-.794763-.76272zm-7.5151166.3772301c.2719322.0443.5114222.092.718802.092.2906541 0 .6544612-.0936 1.0086981-.1364301.09554.4249.457282.7662401.9518559.7829101.0097.80782.6726201 1.46298 1.4825602 1.46298.1408988-.000318.2923238-.0247.4263199-.0641.02063.15766.03421.27275.04031.45838-.00159 1.64552-1.0212081 3.33578-2.3765401 3.91402-.160795.06-.3724191.0341-.6330201-.0351-.26303-.0699-.5626508-.17984-.9001808-.17984-.3375311 0-.684503.12196-.9022482.17984-.261284.0695-.4657828.0959-.6268198.0351-1.4017731-.59805-2.3765621-2.31096-2.3791231-3.91196.04891-1.50068.7685-2.2538 1.898544-2.6350101.125617-.0372.2840701-.0544.4588746-.052695.2644055.00301.5600364.045605.8319674.089905zm-2.5155439 2.97138c0 .13532.01011.2717.02945.40618.01934.13449.04875.26738.08578.39843.01852.0655.0378.12909.06046.19328.11713.33349.617345.15778.500215-.17571-.01893-.05361-.03574-.107711-.05116-.162281-.03084-.10914-.05437-.21963-.07028-.33022s-.02532-.22079-.02532-.3297c.0026-.14916-.118512-.27099-.2811085-.268455-.1489275.01619-.2504975.132126-.2480365.268476zm.789078 2.03873c.04462.0493.09058.0951.138489.14056.255275.24357.620619-.13935.365344-.38292-.03805-.0361-.07511-.0735-.111102-.11318-.05344-.061-.131904-.0942-.212902-.08991-.225318.01109-.334278.28101-.179829.44545z" font-variant-ligatures="normal" font-variant-position="normal" font-variant-caps="normal" font-variant-numeric="normal" font-variant-alternates="normal" font-feature-settings="normal" text-indent="0" text-align="start" text-decoration-line="none" text-decoration-style="solid" text-decoration-color="rgb(0,0,0)" text-transform="none" text-orientation="mixed" white-space="normal" shape-padding="0" isolation="auto" mix-blend-mode="normal" solid-color="rgb(0,0,0)" solid-opacity="1" vector-effect="none"/></g></svg>