<svg id="Layer_1" enable-background="new 0 0 468 468" height="512" viewBox="0 0 468 468" width="512" xmlns="http://www.w3.org/2000/svg"><g><g><ellipse cx="175.001" cy="120.202" rx="10.001" ry="9.991"/><ellipse cx="228.994" cy="120.202" rx="10.001" ry="9.991"/></g><g><g><g><path d="m454 248.411c6.627 0 12-5.373 12-12v-26.237c0-17.632-14.356-31.976-32.002-31.976h-132.082c-4.585-12.207-10.005-23.532-16.187-33.785v-39.903c0-17.635-14.359-31.982-32.009-31.982h-4.481c-1.11-4.357-2.819-8.476-5.02-12.276 9.682-20.896 30.614-34.518 53.942-36.358 6.567-.886 11.175-6.928 10.289-13.496s-6.93-11.175-13.495-10.289c-28.553 2.603-54.232 18.341-68.434 42.392-7.19-4.193-15.542-6.605-24.45-6.605s-17.259 2.412-24.449 6.604c-14.201-24.05-39.883-39.788-68.436-42.391-6.566-.887-12.61 3.722-13.496 10.289-.885 6.568 3.721 12.61 10.29 13.496 23.329 1.84 44.258 15.462 53.942 36.358-2.201 3.8-3.909 7.919-5.02 12.276h-4.488c-17.646 0-32.002 14.344-32.002 31.975v39.605c-6.732 11.111-12.518 23.355-17.292 36.483h-33.93l-35.883-43.903c-4.196-5.132-11.755-5.892-16.886-1.697-5.131 4.193-5.891 11.754-1.697 16.885l39.484 48.309c2.279 2.789 5.69 4.406 9.291 4.406h32.271c-3.993 15.774-6.671 32.472-7.937 49.744h-42.324c-4.243 0-8.171 2.241-10.33 5.894l-31.507 53.305c-3.373 5.706-1.481 13.064 4.224 16.436 5.608 3.343 13.044 1.532 16.436-4.224l28.024-47.411h34.635c.045 20.171 1.994 39.871 5.703 58.524l-61.625 31.3c-5.628 2.858-8.08 9.59-5.607 15.398l19.284 45.311c2.597 6.161 9.792 8.917 15.741 6.343 6.098-2.596 8.937-9.644 6.342-15.741l-14.892-34.992 46.651-23.694c12.961 50.571 56.144 109.126 105.41 106.678 7.148 0 14.306-1.029 21.276-3.06 6.363-1.853 10.019-8.515 8.165-14.878-1.854-6.362-8.514-10.018-14.877-8.165-4.789 1.396-9.689 2.103-14.564 2.103-67.701-6.292-92.784-99.299-93.012-165.847 0-42.232 9.323-82.978 25.81-113.792 20.808 10.528 43.827 16.065 67.275 16.065 23.401 0 46.375-5.516 67.15-16.003 2.527 4.714 4.884 9.673 7.075 14.841-14.899 2.724-26.231 15.783-26.231 31.446v225.851c0 17.632 14.356 31.975 32.002 31.975h151.932c17.645.002 32.001-14.342 32.001-31.973v-111.598c0-6.627-5.373-12-12-12s-12 5.373-12 12v111.597c0 4.397-3.59 7.976-8.002 7.976h-151.932c-4.412 0-8.002-3.578-8.002-7.976v-225.85c0-4.398 3.59-7.977 8.002-7.977h30.977v10.777c0 24.805 20.181 44.985 44.992 44.985 24.805 0 44.985-20.181 44.985-44.985v-10.777h30.977c4.412 0 8.002 3.578 8.002 7.977v26.237c.001 6.627 5.374 12 12.001 12zm-192.271-107.662c-37.346 20.324-81.972 20.324-119.317 0v-36.246c0-4.397 3.59-7.976 8.002-7.976h14.989c6.627 0 12-5.373 12-12 0-13.582 11.066-24.632 24.667-24.632 13.602 0 24.667 11.05 24.667 24.632 0 6.627 5.373 12 12 12h14.982c4.416 0 8.009 3.581 8.009 7.982v36.24zm117.292 72.226c0 11.571-9.414 20.985-20.992 20.985-11.571 0-20.985-9.414-20.985-20.985v-10.777h41.977z"/><ellipse cx="357.959" cy="217.078" rx="8.497" ry="8.505"/></g><ellipse cx="454" cy="279.64" rx="14.001" ry="13.999" transform="matrix(.707 -.707 .707 .707 -64.762 402.931)"/></g><g><g><path d="m329.543 327.917h-9.997c-6.627 0-12-5.373-12-12s5.373-12 12-12h9.997c6.627 0 12 5.373 12 12-.001 6.627-5.374 12-12 12z"/><path d="m329.543 397.958h-9.997c-6.627 0-12-5.373-12-12s5.373-12 12-12h9.997c6.627 0 12 5.373 12 12-.001 6.627-5.374 12-12 12z"/></g><g><path d="m400.519 327.917h-9.997c-6.627 0-12-5.373-12-12s5.373-12 12-12h9.997c6.627 0 12 5.373 12 12s-5.373 12-12 12z"/><path d="m400.519 397.958h-9.997c-6.627 0-12-5.373-12-12s5.373-12 12-12h9.997c6.627 0 12 5.373 12 12s-5.373 12-12 12z"/></g></g></g><g><g><path d="m454.641 70.874c-3.017 0-6.035-1.13-8.368-3.399-29.928-29.124-78.504-29.245-108.281-.269-4.751 4.623-12.348 4.518-16.97-.231-4.622-4.75-4.518-12.348.231-16.97 39.009-37.956 102.598-37.834 141.757.269 7.807 7.078 1.971 20.97-8.369 20.6z"/><path d="m423.454 108.033c-3.017 0-6.035-1.13-8.368-3.399-12.655-12.317-33.19-12.379-45.771-.134-4.751 4.623-12.347 4.518-16.97-.231-4.621-4.75-4.518-12.348.231-16.97 21.813-21.225 57.362-21.161 79.248.134 7.806 7.078 1.971 20.97-8.37 20.6z"/></g><ellipse cx="392.278" cy="136.805" rx="15.179" ry="14.779" transform="matrix(1 -.003 .003 1 -.456 1.316)"/></g></g></svg>