<svg id="fill" height="512" viewBox="0 0 340 340" width="512" xmlns="http://www.w3.org/2000/svg"><path d="m283.948 101.4a18.568 18.568 0 0 0 10.721-18.263c-2.946-40.137-20.946-65.819-25.969-72.271a1.635 1.635 0 0 0 -2.542-.063c-11.744 13.9-34.244 23.454-40.973 26.1a1.17 1.17 0 0 0 -.344 1.966 14.046 14.046 0 0 1 3.939 6.031c4.049 11.769-4.114 22.474-16.694 22.739a18.356 18.356 0 0 1 -1.893-.109 1.169 1.169 0 0 0 -1.287 1.2 25.548 25.548 0 0 1 -.963 8.3 25.962 25.962 0 0 1 -16.836 17.151c-20.841 7.079-33.27-6.318-33.27-6.318-120.037 41.645-101.062 172.709-101.062 172.709 3.409 30.01 0 47.636 0 47.636 27.339-8.9 77.93-13.868 104.219-15.956a117.079 117.079 0 0 0 42.5-11.317c67.308-33.125 78.935-89.208 80.782-102.581a2.107 2.107 0 0 0 -2.381-2.364c-15.77 2.094-26.989-17.1-15.811-29.721a29.065 29.065 0 0 1 8.789-6.551 2.1 2.1 0 0 0 .777-3.139c-3.434-4.652-4.514-10.547-4.83-14.509a19.589 19.589 0 0 1 2.322-11.309 23.355 23.355 0 0 1 10.806-9.361zm-60.831 130.162a17.275 17.275 0 0 1 -34.309-4.07c.039-.329.108-.647.165-.969a13.286 13.286 0 1 1 19.48-14.073 17.265 17.265 0 0 1 14.664 19.112z" fill="#abd37d"/><path d="m54.938 329.727a10.449 10.449 0 0 1 -8.223-15.69c14.121-24.237 51.842-85.427 94.385-124.908a696.352 696.352 0 0 0 70.424-75.315 1.875 1.875 0 0 1 3.119 2.058 315.23 315.23 0 0 1 -50.536 68.105c-10.386 10.645-20.423 21.618-29.856 33.116-20.951 25.534-52.22 67.187-68.57 106.194a10.529 10.529 0 0 1 -10.372 6.465c-.123-.007-.247-.016-.371-.025z" fill="#769344"/><path d="m92.5 183.146a4 4 0 0 1 -3.774-2.677c-3.86-11.008-1.361-19.248-1.253-19.594a4 4 0 0 1 7.642 2.366c-.05.175-1.746 6.293 1.159 14.581a4 4 0 0 1 -3.774 5.324z" fill="#2b313f"/><path d="m134.258 167.557a3.985 3.985 0 0 1 -2.65-1c-5.49-4.859-8.311-14.824-8.614-15.945a4 4 0 1 1 7.721-2.092c.659 2.412 3.053 9.266 6.2 12.047a4 4 0 0 1 -2.653 6.995z" fill="#2b313f"/><path d="m164.5 134.153c-11.453 0-17.68-5.26-18.462-6.024l5.588-5.725-.1-.094a24.275 24.275 0 0 0 12.975 3.843 4 4 0 1 1 0 8z" fill="#2b313f"/><path d="m160.877 109.864q-.32.744-.655 1.493a87.1 87.1 0 0 1 -61.717 49.561c-11.275 2.321-24.239 2.618-37.167-2.161a4.571 4.571 0 0 1 -2.847-3.082c-1.722-6.4-5.148-25.756 8.026-48.356 11.23-19.265 30.168-32.671 51.8-38.1 2.776-.7 5.712-1.324 8.79-1.843 16.113 9.714 26.917 24.293 33.77 42.488z" fill="#ea5e5e"/><path d="m127.1 67.372c-3.078.519-6.014 1.146-8.79 1.843-.082.021-.163.047-.246.068.25 12.695 4.7 41.544 39.227 47.965 1.044-1.921 2.027-3.882 2.929-5.891q.336-.748.655-1.493c-6.851-18.195-17.655-32.774-33.775-42.492z" fill="#c13d3d"/><path d="m143.846 81.164c-31.641 19.677-65.365 47.182-86.8 66.3a50.44 50.44 0 0 0 1.445 8.209 4.571 4.571 0 0 0 2.847 3.082c.1.037.2.067.3.1a721.741 721.741 0 0 1 87.778-70.811 77.775 77.775 0 0 0 -5.57-6.88z" fill="#c13d3d"/><path d="m154 66.243a106.494 106.494 0 0 0 -26.9 1.134 38.868 38.868 0 0 0 -.248 4.326 38.417 38.417 0 0 0 34.018 38.159 98.174 98.174 0 0 0 7.145-26.521 15.366 15.366 0 0 0 -14.015-17.098z" fill="#2b313f"/><path d="m139.936 73.681a4 4 0 0 1 -3.848-5.1 47.96 47.96 0 0 0 .028-24.573 4 4 0 0 1 7.633-2.4 55.33 55.33 0 0 1 .03 29.168 4 4 0 0 1 -3.843 2.905z" fill="#2b313f"/><path d="m185.826 104.723a3.985 3.985 0 0 1 -2.086-.59c-9.321-5.712-20.732-6.121-20.846-6.125a4 4 0 0 1 .112-8h.11c.551.015 13.614.443 24.8 7.3a4 4 0 0 1 -2.094 7.411z" fill="#2b313f"/><g fill="#769344"><path d="m96.5 260.774s30.786-9.08 57.158-10.837a1.19 1.19 0 0 0 .121-2.362 206.7 206.7 0 0 0 -49.065-2.335z"/><path d="m114.591 224.2s1.51-24.03.677-37.511a.763.763 0 0 1 1.478-.317c2.615 7.267 6.615 20.021 6.108 28.82z"/><path d="m149.562 194.616s10.522-3.17 35.244-3.717a1.068 1.068 0 0 0 .262-2.1c-8.277-2.2-21.693-5.306-28.769-4.452z"/><path d="m172.586 162.072s3.88-17.792 4.733-29.565a1.1 1.1 0 0 1 2.163-.2 91.545 91.545 0 0 1 2.617 17.646z"/></g></svg>