<svg id="Icon" height="512" viewBox="0 0 64 64" width="512" xmlns="http://www.w3.org/2000/svg"><path d="m44.75 31.25h16.962c-.387-9.188-7.775-16.575-16.962-16.962z"/><path d="m30.95 43.99 12.3-12.3v-17.402c-9.438.397-17 8.178-17 17.712 0 4.624 1.792 8.828 4.7 11.99z"/><path d="m32.01 45.05c3.162 2.908 7.366 4.7 11.99 4.7 9.534 0 17.315-7.562 17.712-17h-17.401l-12.3 12.3z"/><path d="m9.532 10.116h16.232v4.114h-16.232z"/><path d="m24.75 32c0-10.614 8.636-19.25 19.25-19.25 1.277 0 2.523.131 3.73.37v-8.12c0-1.517-1.233-2.75-2.75-2.75h-39.98c-1.517 0-2.75 1.233-2.75 2.75v54c0 1.517 1.233 2.75 2.75 2.75h39.98c1.517 0 2.75-1.233 2.75-2.75v-8.12c-1.208.238-2.454.37-3.73.37-10.614 0-19.25-8.636-19.25-19.25zm-16.718-22.634c0-.414.336-.75.75-.75h17.733c.414 0 .75.336.75.75v5.614c0 .414-.336.75-.75.75h-17.733c-.414 0-.75-.336-.75-.75zm.75 10.389h13.812c.414 0 .75.336.75.75s-.336.75-.75.75h-13.812c-.414 0-.75-.336-.75-.75s.336-.75.75-.75zm0 5.525h11.812c.414 0 .75.336.75.75s-.336.75-.75.75h-11.812c-.414 0-.75-.336-.75-.75s.336-.75.75-.75zm0 5.525h9.812c.414 0 .75.336.75.75s-.336.75-.75.75h-9.812c-.414 0-.75-.336-.75-.75s.336-.75.75-.75zm0 5.524h7.812c.414 0 .75.336.75.75s-.336.75-.75.75h-7.812c-.414 0-.75-.336-.75-.75s.336-.75.75-.75zm0 5.525h13.812c.414 0 .75.336.75.75s-.336.75-.75.75h-13.812c-.414 0-.75-.336-.75-.75s.336-.75.75-.75zm22.634 13.53h-22.634c-.414 0-.75-.336-.75-.75s.336-.75.75-.75h22.634c.414 0 .75.336.75.75s-.336.75-.75.75z"/></svg>