<svg id="Layer_1" enable-background="new 0 0 512 512" viewBox="0 0 512 512" xmlns="http://www.w3.org/2000/svg"><path d="m437.54 342.74c-6.77 0-13.33 2.01-18.87 5.63-8.83-14.13-24.42-23.04-41.67-23.04-3.16 0-6.28.29-9.33.88-2.55-24.74-23.5-44.11-48.89-44.11-9.37 0-18.45 2.66-26.27 7.62-7.06-7.84-16.44-13.13-26.83-15.16-2-48.71 9.48-89.54 27.45-120.33 1.17.03 2.33.06 3.49.06 36 0 70.22-14.82 94.91-41.38 26.59-28.6 38.79-67.23 33.47-106-.41-2.98-2.46-5.48-5.3-6.47-2.84-.99-6-.29-8.17 1.8-18.27 17.62-34.09 21.25-55.98 26.27-11.03 2.53-23.53 5.4-38.05 10.52-.13.05-.26.09-.38.15-48.84 20.12-42.11 67.14-37.2 101.47.18 1.25.35 2.48.53 3.7-2.83 4.75-5.5 9.69-7.98 14.79-9.84 20.22-16.6 42.48-20.13 65.97-5.41-12.88-12.34-25.88-20.63-38.62-1.53-2.34-3.08-4.65-4.66-6.91 3.74-31.78-6.33-63.32-27.91-86.97-22.33-24.51-54.13-37.54-87.27-35.77-3 .16-5.66 2-6.88 4.75s-.79 5.95 1.12 8.29c13.22 16.2 15.12 29.51 17.76 47.93 1.35 9.43 2.88 20.12 6.18 32.7.03.13.07.26.11.39 6.06 19.07 18.47 31.39 36.87 36.62 8.68 2.47 17.91 3.19 27.01 3.19 6.74 0 13.4-.4 19.7-.77.33-.02.65-.04.99-.06 1.21 1.75 2.4 3.53 3.58 5.33 17.39 26.71 28.26 54.38 31.1 78.84-11.61 1.53-22.16 7.06-29.91 15.67-7.82-4.95-16.89-7.62-26.27-7.62-25.4 0-46.35 19.37-48.89 44.12-3.07-.59-6.2-.89-9.33-.89-17.26 0-32.85 8.91-41.67 23.04-5.55-3.62-12.1-5.63-18.87-5.63-19.01 0-34.47 15.46-34.47 34.47 0 6.71.11 13.57.21 20.2.1 6.61.21 13.44.21 20.11 0 4.42 3.58 7.99 7.99 7.99h113.47c4.07 48.37 44.73 86.49 94.14 86.49 49.39 0 90.04-38.12 94.11-86.49h113.47c4.41 0 7.99-3.58 7.99-7.99 0-6.67.11-13.5.21-20.11.1-6.63.21-13.49.21-20.2 0-19.01-15.46-34.47-34.47-34.47zm-114.52-288.69c13.58-4.78 25.55-7.52 36.11-9.95 18.15-4.16 34.3-7.87 51.1-19.94.15 28.76-10.56 56.51-30.41 77.86-20 21.51-47.09 34.24-76.01 36.05 13.01-17.41 28.17-30.47 43.6-38.58 3.91-2.05 5.41-6.89 3.36-10.79-2.05-3.91-6.89-5.41-10.79-3.36-17 8.93-32.69 22.44-46.02 39.35-3.82-33.38-1.37-58.01 29.06-70.64zm-177.56 92.2c-3.03-11.6-4.42-21.31-5.77-30.71-2.13-14.84-4.03-28.13-12-42.36 22.77 2.38 43.94 12.97 59.63 30.2 14.32 15.7 22.71 35.46 24.24 56.23-13.82-16-28.4-28.31-41.55-34.75-3.97-1.94-8.75-.3-10.69 3.67-1.94 3.96-.3 8.75 3.66 10.69 12.29 6.02 26.7 18.8 40.17 35.24-28.58 1.08-49.31-2.16-57.69-28.21zm110.55 349.76c-43.28 0-78.49-35.21-78.49-78.49s35.21-78.49 78.49-78.49c43.26 0 78.46 35.21 78.46 78.49s-35.19 78.49-78.46 78.49zm199.81-98.86c-.06 4.06-.13 8.21-.17 12.37h-105.53c-4.07-48.37-44.72-86.48-94.11-86.48-49.4 0-90.06 38.12-94.14 86.48h-105.51c-.04-4.16-.11-8.31-.17-12.37-.1-6.57-.21-13.36-.21-19.94 0-10.19 8.29-18.48 18.48-18.48 5.99 0 11.45 2.78 14.96 7.62 1.76 2.43 4.74 3.67 7.71 3.2s5.42-2.55 6.36-5.41c4.47-13.65 17.14-22.81 31.52-22.81 4.94 0 9.68 1.05 14.09 3.12 2.67 1.25 5.8.94 8.17-.82 2.36-1.75 3.57-4.67 3.14-7.58-.23-1.53-.34-3.13-.34-4.76 0-18.3 14.88-33.19 33.17-33.19 8.3 0 16.26 3.1 22.41 8.73 1.75 1.61 4.13 2.34 6.49 2.02s4.44-1.68 5.7-3.7c6.05-9.74 16.59-15.55 28.18-15.55s22.12 5.81 28.18 15.55c1.25 2.02 3.34 3.38 5.7 3.7 2.35.32 4.73-.42 6.49-2.02 6.15-5.63 14.11-8.73 22.41-8.73 18.29 0 33.17 14.89 33.17 33.19 0 1.63-.11 3.23-.34 4.76-.43 2.91.78 5.82 3.14 7.58s5.49 2.07 8.16.83c4.44-2.08 9.18-3.13 14.1-3.13 14.38 0 27.05 9.17 31.52 22.81.94 2.85 3.39 4.94 6.36 5.41 2.96.47 5.94-.77 7.71-3.2 3.52-4.84 8.97-7.62 14.96-7.62 10.19 0 18.48 8.29 18.48 18.48-.03 6.58-.14 13.38-.24 19.94zm-245.2 27.05c-1.35.89-2.87 1.31-4.38 1.31-2.6 0-5.15-1.27-6.69-3.6l-13.44-20.44c-2.43-3.69-1.4-8.65 2.29-11.07s8.65-1.4 11.07 2.29l2.63 3.99c8.39-21.82 29.45-36.93 53.91-36.93 18.9 0 36.63 9.28 47.44 24.83 2.52 3.62 1.62 8.61-2 11.13s-8.61 1.62-11.13-2c-7.82-11.25-20.65-17.97-34.31-17.97-16.88 0-31.52 9.94-38.1 24.56l4.38-2.87c3.69-2.42 8.65-1.39 11.07 2.3s1.39 8.65-2.3 11.07zm262.27-211.03h-27.75v-27.75c0-4.42-3.58-7.99-7.99-7.99h-32.63c-4.42 0-7.99 3.58-7.99 7.99v27.75h-27.75c-4.41 0-7.99 3.58-7.99 7.99v32.63c0 4.42 3.58 7.99 7.99 7.99h27.75v27.75c0 4.42 3.58 7.99 7.99 7.99h32.63c4.42 0 7.99-3.58 7.99-7.99v-27.75h27.75c4.42 0 7.99-3.58 7.99-7.99v-32.63c.01-4.41-3.57-7.99-7.99-7.99zm-7.99 32.63h-27.75c-4.42 0-7.99 3.58-7.99 7.99v27.75h-16.64v-27.75c0-4.42-3.58-7.99-7.99-7.99h-27.75v-16.64h27.75c4.41 0 7.99-3.58 7.99-7.99v-27.75h16.64v27.75c0 4.42 3.58 7.99 7.99 7.99h27.75zm-398.04 43.73c0 4.42 3.58 7.99 7.99 7.99h32.63c4.41 0 7.99-3.58 7.99-7.99v-27.75h27.75c4.41 0 7.99-3.58 7.99-7.99v-32.63c0-4.42-3.58-7.99-7.99-7.99h-27.75v-27.75c0-4.42-3.58-7.99-7.99-7.99h-32.63c-4.41 0-7.99 3.58-7.99 7.99v27.75h-27.75c-4.41 0-7.99 3.58-7.99 7.99v32.63c0 4.42 3.58 7.99 7.99 7.99h27.75zm-19.76-43.73v-16.64h27.75c4.42 0 7.99-3.58 7.99-7.99v-27.75h16.64v27.75c0 4.42 3.58 7.99 7.99 7.99h27.75v16.64h-27.75c-4.42 0-7.99 3.58-7.99 7.99v27.75h-16.63v-27.75c0-4.42-3.58-7.99-7.99-7.99zm377.58 148.85c-1.88 3.99-6.65 5.7-10.64 3.82-1.04-.49-2.14-.74-3.28-.74-2.46 0-4.78 1.18-6.21 3.17-1.52 2.11-3.94 3.33-6.49 3.33-.41 0-.81-.03-1.22-.09-2.97-.46-5.44-2.55-6.37-5.41-2.21-6.76-8.5-11.3-15.65-11.3-2.45 0-4.8.52-6.98 1.54-2.67 1.25-5.81.93-8.17-.83s-3.56-4.68-3.13-7.6c.11-.74.17-1.52.17-2.33 0-4.68-1.91-9.01-5.39-12.18-3.26-2.98-3.49-8.03-.51-11.29s8.03-3.49 11.29-.51c5.07 4.63 8.51 10.72 9.9 17.33.93-.08 1.87-.12 2.82-.12 10.31 0 19.72 4.81 25.74 12.64 3.15-1.5 6.63-2.32 10.21-2.32 3.52 0 6.91.76 10.1 2.27 3.98 1.87 5.69 6.63 3.81 10.62zm-263.48-39.92c2.98 3.26 2.75 8.32-.51 11.29-3.48 3.17-5.39 7.5-5.39 12.18 0 .81.06 1.59.17 2.33.44 2.92-.76 5.83-3.13 7.6-2.36 1.76-5.5 2.08-8.17.83-2.18-1.02-4.53-1.54-6.98-1.54-7.13 0-13.4 4.54-15.62 11.3-.93 2.85-3.39 4.94-6.36 5.41-.42.07-.83.1-1.24.1-2.53 0-4.95-1.21-6.47-3.3-1.45-2-3.79-3.2-6.26-3.2-1.14 0-2.24.25-3.28.74-3.99 1.88-8.76.17-10.64-3.82s-.17-8.76 3.82-10.64c3.19-1.5 6.58-2.27 10.1-2.27 3.58 0 7.07.82 10.23 2.33 6.01-7.83 15.41-12.65 25.72-12.65.95 0 1.89.04 2.82.12 1.39-6.61 4.83-12.7 9.9-17.33 3.26-2.97 8.32-2.74 11.29.52zm151.24 58.4 13.44 20.44c2.43 3.69 1.4 8.65-2.29 11.07-1.35.89-2.88 1.31-4.38 1.31-2.6 0-5.15-1.27-6.69-3.6l-2.62-3.99c-8.4 21.8-29.51 36.93-53.88 36.93-18.88 0-36.62-9.28-47.46-24.82-2.53-3.62-1.64-8.6 1.98-11.13s8.6-1.64 11.13 1.98c7.85 11.26 20.69 17.98 34.35 17.98 16.8 0 31.47-9.95 38.06-24.53l-4.36 2.87c-3.69 2.42-8.65 1.4-11.07-2.29-2.43-3.69-1.4-8.65 2.29-11.07l20.44-13.44c1.77-1.16 3.93-1.58 6.01-1.15 2.07.43 3.89 1.66 5.05 3.44z"/></svg>