<svg id="Capa_1" enable-background="new 0 0 512.002 512.002" height="512" viewBox="0 0 512.002 512.002" width="512" xmlns="http://www.w3.org/2000/svg"><g><circle cx="242.645" cy="269.356" fill="#fb4a59" r="242.644"/><path d="m485.292 269.356c0 134.006-108.64 242.646-242.646 242.646-6.675 0-13.29-.274-19.834-.797 124.726-10.089 222.812-114.518 222.812-241.849s-98.087-231.76-222.813-241.85c6.544-.523 13.159-.797 19.834-.797 134.007 0 242.647 108.64 242.647 242.647z" fill="#f82f40"/><circle cx="242.645" cy="269.356" fill="#eef4f5" r="188.026"/><path d="m430.668 269.356c0 103.845-84.178 188.023-188.023 188.023-6.699 0-13.314-.345-19.834-1.035 94.517-9.911 168.189-89.841 168.189-186.988s-73.671-177.077-168.189-186.988c6.52-.69 13.135-1.035 19.834-1.035 103.845 0 188.023 84.178 188.023 188.023z" fill="#cbe5e7"/><circle cx="242.645" cy="269.356" fill="#fb4a59" r="133.407"/><path d="m376.057 269.356c0 73.684-59.728 133.411-133.411 133.411-6.734 0-13.361-.5-19.834-1.463 64.273-9.59 113.566-65.01 113.566-131.948s-49.293-122.358-113.566-131.948c6.472-.964 13.1-1.463 19.834-1.463 73.683-.001 133.411 59.727 133.411 133.411z" fill="#f82f40"/><circle cx="242.645" cy="269.356" fill="#eef4f5" r="78.214"/><path d="m320.862 269.356c0 43.201-35.016 78.217-78.217 78.217-6.425 0-12.671-.774-18.644-2.237 34.195-8.364 59.561-39.204 59.561-75.98 0-36.777-25.366-67.616-59.561-75.98 5.973-1.464 12.219-2.237 18.644-2.237 43.202 0 78.217 35.015 78.217 78.217z" fill="#cbe5e7"/><circle cx="242.645" cy="269.356" fill="#fb4a59" r="28.519"/><path d="m271.165 269.356c0 15.753-12.767 28.519-28.519 28.519-4.842 0-9.411-1.202-13.409-3.343 11.85-2.249 20.809-12.671 20.809-25.176s-8.959-22.927-20.809-25.176c3.998-2.141 8.566-3.343 13.409-3.343 15.752-.001 28.519 12.766 28.519 28.519z" fill="#f82f40"/><g><path d="m242.645 277.083c-1.977 0-3.955-.755-5.463-2.263-3.018-3.018-3.018-7.91 0-10.928l210.757-210.757c3.017-3.016 7.909-3.016 10.927 0 3.018 3.018 3.018 7.909 0 10.928l-210.757 210.757c-1.509 1.508-3.486 2.263-5.464 2.263z" fill="#688d97"/><g><g><path d="m356.112 55.848c-3.615 3.615-5.168 8.806-4.132 13.812l15.489 74.872 25.694-25.694-11.446-55.329c-2.448-11.831-17.062-16.204-25.605-7.661z" fill="#31a7fb"/><path d="m381.806 30.154c-3.615 3.615-5.168 8.806-4.132 13.812l15.489 74.872 25.694-25.694-11.446-55.33c-2.447-11.831-17.062-16.203-25.605-7.66z" fill="#a3e440"/><path d="m407.501 4.46c-3.615 3.615-5.168 8.806-4.132 13.812l15.489 74.872 25.694-25.694-11.447-55.33c-2.447-11.831-17.062-16.203-25.604-7.66z" fill="#31a7fb"/></g></g><g><g><path d="m456.153 155.889c-3.615 3.615-8.806 5.168-13.812 4.132l-74.872-15.489 25.694-25.694 55.329 11.446c11.831 2.448 16.204 17.062 7.661 25.605z" fill="#1c96f9"/><path d="m481.847 130.195c-3.615 3.615-8.806 5.168-13.812 4.132l-74.872-15.489 25.694-25.694 55.33 11.446c11.831 2.447 16.203 17.062 7.66 25.605z" fill="#8dc637"/><path d="m507.541 104.5c-3.615 3.615-8.806 5.168-13.812 4.132l-74.872-15.489 25.694-25.694 55.329 11.446c11.832 2.448 16.204 17.063 7.661 25.605z" fill="#1c96f9"/></g></g></g></g></svg>